<svg version="1.1" xmlns="http://www.w3.org/2000/svg" viewBox="0 0 1485.8460661007218 998.538229710739" width="1485.8460661007218" height="998.538229710739">
  <!-- svg-source:excalidraw -->
  
  <defs>
    <style>
      @font-face {
        font-family: "Virgil";
        src: url("https://excalidraw.com/Virgil.woff2");
      }
      @font-face {
        font-family: "Cascadia";
        src: url("https://excalidraw.com/Cascadia.woff2");
      }
    </style>
  </defs>
  <rect x="0" y="0" width="1485.8460661007218" height="998.538229710739" fill="#ffffff"></rect><g stroke-linecap="round"><g transform="translate(473.8070209138723 135.22219036893944) rotate(89.99999999999994 288.38784516157375 425.6255711327614)"><path d="M288.31 0.58 C386.1 58.36, 485.19 116.47, 645.86 213.7 M288.1 -0.25 C416.69 77.29, 544.72 154.54, 645.21 212.41 M644.68 212.12 C647.32 363.71, 646.53 517.32, 645.82 639.35 M644.92 212.99 C646.48 371.55, 646.05 531.11, 645.23 638.62 M645.07 638.4 C551.81 695.5, 461.04 750.4, 288.8 851.18 M645 638.86 C504.09 721.06, 362.45 806, 287.56 851.71 M288.65 851.57 C204.78 801.94, 119.7 751.3, -68.77 639.36 M287.81 851.69 C163.95 775.65, 40.09 702.06, -69.27 638.5 M-68.38 639.51 C-68.69 477.37, -68.61 315.9, -69.21 212.29 M-69.18 638.43 C-68.86 536.8, -68.29 435.15, -69.73 213.11 M-68.24 212.33 C71.45 132.71, 208.2 49.8, 287.54 -0.46 M-69.47 212.42 C48.76 142.69, 167.1 71.96, 287.72 0.13" stroke="#000000" stroke-width="1" fill="none"></path></g></g><g transform="translate(744.3447149219701 618.9427448765946) rotate(0 38.5 10.5)"><text x="38.5" y="15" font-family="Virgil, Segoe UI Emoji" font-size="16px" fill="#000000" text-anchor="middle" style="white-space: pre;" direction="ltr">Prediction</text></g><g transform="translate(765.0094484618776 397.78057617947724) rotate(0 48.5 10.5)"><text x="48.5" y="15" font-family="Virgil, Segoe UI Emoji" font-size="16px" fill="#000000" text-anchor="middle" style="white-space: pre;" direction="ltr">ObjectCount</text></g><g transform="translate(479.616097813627 361.90613659520494) rotate(0 58 10.5)"><text x="58" y="15" font-family="Virgil, Segoe UI Emoji" font-size="16px" fill="#000000" text-anchor="middle" style="white-space: pre;" direction="ltr">CountResponse</text></g><g transform="translate(597.9322187540524 564.4656400159231) rotate(0 56 10.5)"><text x="56" y="15" font-family="Virgil, Segoe UI Emoji" font-size="16px" fill="#000000" text-anchor="middle" style="white-space: pre;" direction="ltr">OverThreshold</text></g><g transform="translate(723.6574039445247 368.125515836591) rotate(0 23 10.5)"><text x="23" y="15" font-family="Virgil, Segoe UI Emoji" font-size="16px" fill="#000000" text-anchor="middle" style="white-space: pre;" direction="ltr">Count</text></g><g transform="translate(453.42106746818945 725.0292474175569) rotate(0 73.5 10.5)"><text x="73.5" y="15" font-family="Virgil, Segoe UI Emoji" font-size="16px" fill="#000000" text-anchor="middle" style="white-space: pre;" direction="ltr">PredictionResponse</text></g><g stroke-linecap="round"><g transform="translate(957.9138975603921 307.39601769249776) rotate(89.99999999999994 -204.65738916551777 250.42728869082606)"><path d="M-204.14 0.97 C-160.16 26.54, -114.48 52.66, 3.88 125.66 M-205.51 0.67 C-161.66 26.53, -118.49 51.63, 3.98 125.17 M4.6 124.21 C3.57 199.69, 2.7 274.29, 3.72 374 M4.85 124.22 C3.69 211.49, 2.48 300.12, 5.41 374.13 M5.63 376.03 C-70.8 422.96, -148.85 465.27, -205.92 498.65 M3.92 374.33 C-49.2 408.62, -102.89 439.63, -204.41 499.47 M-204.51 500.52 C-276.69 459.1, -345.09 419.06, -413.36 373.39 M-204.16 499.79 C-282.99 453.57, -362.88 405.47, -414.59 374.24 M-414.28 375.01 C-414.97 319.09, -415.62 265.23, -413.52 124.74 M-413.9 373.98 C-412.79 311.09, -413.51 248.34, -414.32 124.81 M-413.3 124.3 C-358.29 90, -301 57.35, -205.88 1.5 M-414.36 124.69 C-346.61 84.38, -278.72 43.61, -204.5 0.33" stroke="#000000" stroke-width="1" fill="none"></path></g></g><g stroke-linecap="round" transform="translate(890.9218966955173 434.081754342569) rotate(0 73.5 30.5)"><path d="M95.77 0.6 C107.42 1.46, 120.16 5.21, 128.54 9.22 C136.92 13.22, 143.53 19.62, 146.06 24.63 C148.59 29.64, 147.52 34.39, 143.74 39.26 C139.96 44.13, 132.42 50.21, 123.38 53.86 C114.34 57.51, 101.34 60.23, 89.5 61.17 C77.65 62.11, 63.93 61.07, 52.29 59.5 C40.65 57.93, 28.22 55.33, 19.65 51.74 C11.08 48.15, 3.68 43.02, 0.87 37.94 C-1.94 32.85, -0.89 26.32, 2.8 21.23 C6.48 16.14, 13.74 10.88, 22.97 7.39 C32.21 3.89, 44.83 1.09, 58.21 0.27 C71.58 -0.56, 94.9 1.74, 103.23 2.44 C111.56 3.14, 108.82 4.01, 108.2 4.47 M94.61 0.98 C105.82 2.04, 118.52 6.37, 126.99 10.15 C135.47 13.93, 142.81 18.88, 145.47 23.64 C148.13 28.39, 146.66 33.77, 142.96 38.66 C139.25 43.56, 132.12 49.32, 123.24 52.99 C114.35 56.67, 101.77 59.58, 89.64 60.73 C77.51 61.89, 62 61.59, 50.43 59.93 C38.86 58.26, 28.12 54.72, 20.22 50.74 C12.33 46.77, 5.93 40.93, 3.06 36.07 C0.2 31.21, -0.43 26.02, 3.02 21.56 C6.47 17.09, 14.68 12.83, 23.77 9.27 C32.85 5.72, 45.41 1.76, 57.52 0.21 C69.63 -1.33, 90.29 -0.3, 96.43 0.02 C102.57 0.34, 94.92 1.2, 94.35 2.14" stroke="none" stroke-width="0" fill="#fff"></path><path d="M96.79 1.06 C108.28 2.37, 119.92 7.14, 127.93 11.06 C135.94 14.98, 142.28 19.81, 144.85 24.58 C147.42 29.35, 147.04 34.84, 143.36 39.69 C139.68 44.54, 131.97 50.16, 122.79 53.66 C113.6 57.16, 100.45 59.74, 88.28 60.7 C76.1 61.65, 61.47 61.2, 49.73 59.41 C37.99 57.61, 25.83 53.76, 17.82 49.92 C9.81 46.07, 4.13 41.2, 1.67 36.34 C-0.8 31.48, -0.6 25.35, 3.04 20.75 C6.68 16.14, 14.17 12.04, 23.51 8.7 C32.84 5.35, 44.58 1.39, 59.06 0.67 C73.54 -0.04, 99.87 3.2, 110.37 4.39 C120.87 5.58, 122.74 7.34, 122.05 7.81 M70.73 -0.33 C82.38 -0.64, 99.25 1.13, 109.94 3.7 C120.63 6.27, 128.66 10.54, 134.89 15.09 C141.12 19.64, 146.55 26.16, 147.3 31 C148.05 35.85, 145.52 39.9, 139.4 44.16 C133.27 48.43, 121.04 53.89, 110.54 56.6 C100.05 59.31, 88.51 60.31, 76.42 60.41 C64.32 60.51, 49.09 59.42, 37.96 57.22 C26.83 55.01, 16.03 51.33, 9.62 47.18 C3.22 43.03, -0.26 37.44, -0.47 32.33 C-0.67 27.21, 2.39 21.07, 8.37 16.48 C14.36 11.9, 24.99 7.5, 35.47 4.81 C45.95 2.12, 65.15 1.02, 71.26 0.34 C77.37 -0.34, 71.98 0.35, 72.14 0.73" stroke="#000000" stroke-width="1" fill="none"></path></g><g transform="translate(895.9218966955173 454.081754342569) rotate(0 68.5 10.5)"><text x="68.5" y="15" font-family="Virgil, Segoe UI Emoji" font-size="16px" fill="#000000" text-anchor="middle" style="white-space: pre;" direction="ltr">ObjectCountRepo</text></g><g stroke-linecap="round"><g transform="translate(1087.656032858143 467.91447164320067) rotate(0 -23.148573032041895 -1.6007432795466343)"><path d="M-0.49 -1.19 C-8.14 -1.7, -37.99 -1.98, -45.81 -2.01" stroke="#000000" stroke-width="1.5" fill="none" stroke-dasharray="8 9"></path></g><g transform="translate(1087.656032858143 467.91447164320067) rotate(0 -23.148573032041895 -1.6007432795466343)"><path d="M-25.94 -8.85 C-31.6 -9.2, -37.23 -6.82, -45.11 -3.16" stroke="#000000" stroke-width="1.5" fill="none"></path></g><g transform="translate(1087.656032858143 467.91447164320067) rotate(0 -23.148573032041895 -1.6007432795466343)"><path d="M-26.07 7.01 C-31.82 1.78, -37.41 -0.74, -45.11 -3.16" stroke="#000000" stroke-width="1.5" fill="none"></path></g></g><g stroke-linecap="round" transform="translate(1023.7086879515603 318.4261446609708) rotate(0 95.5 23)"><path d="M-1.27 -0.13 L191.29 -1.3 L190.42 46.06 L-1.4 45.36" stroke="none" stroke-width="0" fill="#ced4da"></path><path d="M-1.12 1.51 C57.25 -2.38, 113.39 -0.79, 190.11 0.01 M0.79 0.89 C74.31 -2.56, 150.86 -2.78, 191.73 -0.3 M190.88 -1.82 C192.81 13.94, 192.14 26.91, 191.39 46.23 M191.58 -0.92 C190.14 18.65, 191.6 36.35, 191.13 45.02 M190.49 44.17 C120.23 43.99, 49.57 43.31, -0.87 44.9 M191.84 46.93 C136.93 44.41, 81.09 43.95, 0.94 46.08 M-0.13 45.21 C0.64 36.31, -0.47 29.08, 0.88 -0.19 M0.38 45.06 C0.05 27.33, 0.59 11.28, -0.31 -0.43" stroke="#000000" stroke-width="1" fill="none"></path></g><g transform="translate(1028.7086879515603 330.9261446609708) rotate(0 90.5 10.5)"><text x="90.5" y="15" font-family="Virgil, Segoe UI Emoji" font-size="16px" fill="#000000" text-anchor="middle" style="white-space: pre;" direction="ltr">CountMongoDBRepo</text></g><g stroke-linecap="round" transform="translate(1091.09934971704 429.12898677559843) rotate(0 90 27)"><path d="M-1.91 0.44 L180.7 -0.06 L180.52 55.26 L1.28 54.02" stroke="none" stroke-width="0" fill="#ced4da"></path><path d="M-1.76 0.31 C70.66 -0.03, 141.48 2.66, 178.45 -1.76 M-0.77 0.55 C40.85 0.75, 82.3 1.87, 180.23 0.09 M181.59 -0.82 C181.4 23.39, 179.11 43.44, 181.19 52.57 M179.29 -0.84 C179.58 11.89, 178.69 22.66, 179.77 53.07 M179.29 53.05 C140.66 53.97, 99.3 55.94, 1.13 53.16 M179.43 53.29 C136.42 52.51, 90.85 52.69, 0.85 53.27 M0.04 53.68 C-1.05 37.49, -1.48 20.26, 0.03 0.27 M0.06 53.15 C0.73 37.26, 0.43 19.56, 0.46 -0.93" stroke="#000000" stroke-width="1" fill="none"></path></g><g transform="translate(1096.09934971704 445.62898677559843) rotate(0 85 10.5)"><text x="85" y="15" font-family="Virgil, Segoe UI Emoji" font-size="16px" fill="#000000" text-anchor="middle" style="white-space: pre;" direction="ltr">CountInMemoryRepo</text></g><g stroke-linecap="round"><g transform="translate(1186.426304880883 315.2667686397612) rotate(0 71.81683497079223 -24.780071924418337)"><path d="M0.21 0.59 C24.18 -7.5, 120.67 -40.2, 144.78 -48.29 M-1.15 -0.14 C22.63 -8.63, 119.78 -41.87, 144.03 -50.15" stroke="#000000" stroke-width="1" fill="none"></path></g><g transform="translate(1186.426304880883 315.2667686397612) rotate(0 71.81683497079223 -24.780071924418337)"><path d="M121.67 -30.68 C130.23 -37.65, 139.59 -47.25, 143.15 -51.6 M119.86 -31.7 C126.18 -35.58, 131.4 -39.83, 144.41 -49.75" stroke="#000000" stroke-width="1" fill="none"></path></g><g transform="translate(1186.426304880883 315.2667686397612) rotate(0 71.81683497079223 -24.780071924418337)"><path d="M115.03 -50.1 C126.13 -49.78, 137.99 -52.07, 143.15 -51.6 M113.22 -51.12 C121.01 -50.69, 127.72 -50.6, 144.41 -49.75" stroke="#000000" stroke-width="1" fill="none"></path></g></g><g stroke-linecap="round"><g transform="translate(1337.501416746374 135.91111510934638) rotate(0 50.905747520083196 47.45265910712487)" fill-rule="evenodd"><path d="M-0.22 -0.28 L-0.79 93.84 L3.6 96.71 L8.75 98.21 L21.99 105.05 L52.82 106.1 L81.98 101.74 L94.3 100.51 L100.66 93.71 L101.08 91.16 L102.85 0.97 L95.25 -4.09 L74.99 -9.61 L48.36 -12.76 L19.76 -6.85 L1.95 -0.98" stroke="none" stroke-width="0" fill="#228be6" fill-rule="evenodd"></path><path d="M0.16 -1.16 C0.34 12.57, 0.07 65.69, 0.16 81.73 C0.24 97.76, -1.45 91.77, 0.68 95.03 C2.82 98.3, 7.86 99.49, 12.97 101.31 C18.08 103.13, 24.99 105.11, 31.33 105.97 C37.66 106.82, 44.96 106.43, 50.98 106.44 C57.01 106.46, 61.86 106.85, 67.48 106.08 C73.1 105.3, 79.43 103.51, 84.7 101.81 C89.97 100.11, 96.55 99.09, 99.09 95.85 C101.63 92.62, 99.44 96.52, 99.95 82.38 C100.46 68.25, 102.25 24.83, 102.15 11.05 C102.05 -2.73, 101.74 2.74, 99.34 -0.29 C96.94 -3.31, 92.01 -5.67, 87.76 -7.09 C83.5 -8.52, 79.25 -8.19, 73.82 -8.85 C68.4 -9.51, 60.4 -10.62, 55.22 -11.05 C50.03 -11.47, 48.82 -11.6, 42.74 -11.4 C36.65 -11.2, 25.72 -11.74, 18.7 -9.84 C11.68 -7.93, 3.82 -1.49, 0.62 0.03 M-1.21 0.85 C-1.1 14.27, -1.41 64.02, -0.71 79.86 C-0.01 95.69, 0.77 92.12, 3 95.87 C5.23 99.63, 7.68 100.62, 12.69 102.4 C17.69 104.18, 26.48 106.07, 33.04 106.55 C39.59 107.03, 46.23 105.53, 52 105.27 C57.77 105, 62.32 105.1, 67.66 104.98 C73 104.86, 78.53 106.27, 84.06 104.56 C89.59 102.85, 98.13 98.4, 100.85 94.73 C103.57 91.06, 100.05 96.31, 100.38 82.53 C100.71 68.74, 102.72 25.9, 102.85 12.03 C102.98 -1.84, 103.62 2.71, 101.16 -0.68 C98.71 -4.06, 92.73 -6.96, 88.1 -8.26 C83.46 -9.56, 78.75 -7.92, 73.34 -8.49 C67.94 -9.06, 60.64 -11.36, 55.66 -11.68 C50.68 -12, 49.81 -10.75, 43.46 -10.42 C37.12 -10.09, 24.87 -11.5, 17.57 -9.69 C10.27 -7.89, 2.33 -1.06, -0.34 0.42" stroke="#364fc7" stroke-width="1" fill="none"></path></g></g><g stroke-linecap="round" transform="translate(1337.1279544690985 123.58626108170188) rotate(0 50.62648340191504 13.765081576212367)"><path d="M54.96 0.96 C64.68 1.01, 76.94 1.21, 84.26 2.76 C91.58 4.31, 96.59 7.58, 98.87 10.26 C101.15 12.94, 101.59 16.35, 97.93 18.85 C94.28 21.35, 85.3 23.84, 76.95 25.28 C68.61 26.72, 57.6 27.69, 47.88 27.49 C38.15 27.29, 26.41 25.8, 18.59 24.1 C10.77 22.4, 3.55 19.83, 0.94 17.29 C-1.67 14.74, -1.05 11.44, 2.91 8.86 C6.88 6.28, 14.68 3.27, 24.71 1.79 C34.73 0.3, 55.2 -0.08, 63.08 -0.05 C70.96 -0.02, 72.19 1.77, 71.98 1.96 M39.37 -0.48 C48.23 -1.33, 61.78 0.15, 70.8 1.62 C79.82 3.09, 88.53 5.94, 93.49 8.33 C98.46 10.72, 101.46 13.61, 100.58 15.96 C99.7 18.31, 94.92 20.74, 88.19 22.44 C81.47 24.14, 69.88 25.27, 60.25 26.16 C50.63 27.05, 39.3 28.89, 30.44 27.77 C21.59 26.66, 11.92 22.02, 7.11 19.48 C2.29 16.94, 0.48 15.1, 1.54 12.54 C2.6 9.97, 7.06 6.08, 13.45 4.09 C19.84 2.1, 35.29 1, 39.87 0.61 C44.45 0.23, 40.93 1.65, 40.95 1.8" stroke="none" stroke-width="0" fill="#ffffff"></path><path d="M59.85 0.25 C69.25 0.76, 80.43 2.81, 87.17 4.76 C93.91 6.72, 99.17 9.29, 100.3 11.98 C101.44 14.67, 98.64 18.69, 93.97 20.93 C89.29 23.16, 81.22 24.26, 72.26 25.39 C63.3 26.51, 50.11 27.9, 40.19 27.67 C30.28 27.44, 19.33 26.08, 12.78 24.02 C6.24 21.96, 2.08 18.15, 0.93 15.32 C-0.23 12.49, 1.07 9.48, 5.88 7.05 C10.69 4.61, 19.88 1.64, 29.79 0.7 C39.69 -0.23, 58.78 1.37, 65.3 1.43 C71.82 1.5, 69.28 1.09, 68.9 1.09 M55.71 -0.53 C65.25 -0.61, 76.09 1.54, 83.45 3.32 C90.82 5.1, 97.57 7.26, 99.88 10.15 C102.2 13.04, 101.22 17.85, 97.36 20.67 C93.5 23.49, 85.51 26.03, 76.74 27.08 C67.98 28.13, 54.58 27.33, 44.78 26.96 C34.98 26.59, 25.27 26.82, 17.92 24.86 C10.58 22.9, 3.13 17.77, 0.71 15.2 C-1.71 12.64, -0.74 11.54, 3.41 9.46 C7.56 7.38, 17.1 4.28, 25.6 2.73 C34.11 1.18, 49.57 0.35, 54.43 0.15 C59.29 -0.06, 54.62 1.2, 54.77 1.49" stroke="#364fc7" stroke-width="1" fill="none"></path></g><g transform="translate(1344.6231814712662 243.5862610817017) rotate(0 44 13)"><text x="44" y="18" font-family="Virgil, Segoe UI Emoji" font-size="20px" fill="#000000" text-anchor="middle" style="white-space: pre;" direction="ltr">MongoDB</text></g><g stroke-linecap="round"><g transform="translate(1032.3005360297323 367.8224167500534) rotate(0 -16.468836866415472 32.718643605296165)"><path d="M0.68 0.15 C-4.94 11.17, -27.67 54.13, -33.62 65.29" stroke="#000000" stroke-width="1.5" fill="none" stroke-dasharray="8 9"></path></g><g transform="translate(1032.3005360297323 367.8224167500534) rotate(0 -16.468836866415472 32.718643605296165)"><path d="M-29.22 36.5 C-32.59 43.4, -30.89 53.05, -31.83 67.25" stroke="#000000" stroke-width="1.5" fill="none"></path></g><g transform="translate(1032.3005360297323 367.8224167500534) rotate(0 -16.468836866415472 32.718643605296165)"><path d="M-11.09 46.12 C-19.99 50.15, -23.9 56.83, -31.83 67.25" stroke="#000000" stroke-width="1.5" fill="none"></path></g></g><g stroke-linecap="round" transform="translate(944.8319605689717 232.92865917406533) rotate(0 99 23)"><path d="M0.64 1.91 L197.58 0.18 L199.74 45.61 L1.12 44.68" stroke="none" stroke-width="0" fill="#ced4da"></path><path d="M-0.34 -1.52 C65.1 -0.63, 129.49 1.31, 196.65 -1.08 M-0.83 -0.59 C73.39 -2.03, 146.79 -1.23, 197.08 0.8 M196.51 -1.47 C198.29 13.31, 197.6 27.95, 199.77 47.9 M197.39 -0.92 C198.26 14.94, 198.96 29.12, 197.02 45.26 M196.99 47.75 C126.72 44.41, 54.6 46.06, -1.84 46.14 M198.51 46.82 C137.65 46.92, 79.31 47.69, 0.88 46.13 M1.03 47.29 C-0.22 32.13, -0.08 18.39, -0.95 1.05 M-0.25 46.7 C-0.25 27.84, 0.63 8.36, -0.68 0.78" stroke="#000000" stroke-width="1" fill="none"></path></g><g transform="translate(949.8319605689717 245.42865917406533) rotate(0 94 10.5)"><text x="94" y="15" font-family="Virgil, Segoe UI Emoji" font-size="16px" fill="#000000" text-anchor="middle" style="white-space: pre;" direction="ltr">CountPostgresDbRepo</text></g><g stroke-linecap="round"><g transform="translate(1082.5733311142442 228.53267760048647) rotate(0 42.84262146550475 -36.90022245438428)"><path d="M-0.91 0.63 C13.28 -11.46, 70.03 -60.24, 84.45 -72.73 M0.81 -0.09 C15.42 -12.49, 72.58 -62.2, 86.6 -74.43" stroke="#000000" stroke-width="1" fill="none"></path></g><g transform="translate(1082.5733311142442 228.53267760048647) rotate(0 42.84262146550475 -36.90022245438428)"><path d="M73.11 -49.96 C76.99 -54.25, 77.78 -61.84, 87.98 -75.75 M72.4 -48.8 C78.34 -57.65, 82.14 -66.75, 86.68 -74.32" stroke="#000000" stroke-width="1" fill="none"></path></g><g transform="translate(1082.5733311142442 228.53267760048647) rotate(0 42.84262146550475 -36.90022245438428)"><path d="M59.64 -65.44 C66.75 -65.89, 70.79 -69.73, 87.98 -75.75 M58.93 -64.28 C69.73 -67.31, 78.53 -70.67, 86.68 -74.32" stroke="#000000" stroke-width="1" fill="none"></path></g></g><g stroke-linecap="round"><g transform="translate(1174.104878308051 22.324854027644506) rotate(0 50.52675513010092 47.820640232416224)" fill-rule="evenodd"><path d="M-1.49 1.31 L1.52 91.48 L0.77 97.68 L7.89 99.54 L23.91 105.64 L49.89 106.84 L84 101.65 L94.4 100.85 L101.16 94.11 L99.37 93.75 L101.25 2.51 L94.9 -4.11 L73.73 -8.82 L50.59 -9.81 L18.32 -9.24 L-0.01 -0.99" stroke="none" stroke-width="0" fill="#228be6" fill-rule="evenodd"></path><path d="M0.63 -1.07 C0.8 12.64, 0.76 65.28, 0.82 81.34 C0.88 97.4, -1.37 92.09, 0.96 95.29 C3.3 98.49, 9.45 98.99, 14.8 100.54 C20.16 102.1, 27.06 103.52, 33.09 104.61 C39.13 105.71, 45.27 106.8, 51.02 107.1 C56.77 107.4, 62.09 107.29, 67.61 106.41 C73.14 105.52, 78.69 103.61, 84.17 101.79 C89.65 99.96, 97.73 98.81, 100.49 95.46 C103.25 92.1, 100.71 95.86, 100.72 81.65 C100.73 67.44, 100.61 23.94, 100.54 10.19 C100.47 -3.57, 102.51 1.94, 100.3 -0.87 C98.09 -3.68, 91.58 -5.37, 87.27 -6.68 C82.96 -8, 79.8 -8.25, 74.46 -8.76 C69.11 -9.27, 60.23 -9.26, 55.21 -9.74 C50.2 -10.21, 50.67 -11.75, 44.36 -11.61 C38.06 -11.48, 24.69 -10.96, 17.36 -8.92 C10.03 -6.88, 3.3 -0.68, 0.38 0.61 M-0.5 0.98 C-0.4 14.98, -0.35 67.05, 0.3 82.93 C0.96 98.81, 0.9 93.21, 3.43 96.26 C5.96 99.32, 10.71 99.86, 15.49 101.23 C20.26 102.6, 25.97 103.64, 32.07 104.48 C38.16 105.32, 46.09 106.11, 52.06 106.27 C58.02 106.44, 62.66 105.77, 67.86 105.48 C73.06 105.19, 78.01 106.42, 83.26 104.53 C88.5 102.64, 96.27 97.98, 99.32 94.12 C102.37 90.27, 101.38 95.32, 101.56 81.41 C101.74 67.51, 100.82 24.54, 100.39 10.71 C99.95 -3.12, 101.13 1.49, 98.96 -1.57 C96.79 -4.63, 91.46 -6.5, 87.36 -7.63 C83.25 -8.76, 79.59 -8.01, 74.31 -8.35 C69.02 -8.69, 60.99 -9.28, 55.66 -9.68 C50.32 -10.08, 48.36 -10.98, 42.29 -10.74 C36.21 -10.51, 26.35 -10.3, 19.19 -8.29 C12.02 -6.28, 2.76 0.18, -0.71 1.3" stroke="#364fc7" stroke-width="1" fill="none"></path></g></g><g stroke-linecap="round" transform="translate(1173.7314160307756 10) rotate(0 50.62648340191515 13.765081576212367)"><path d="M63.99 0.21 C73.17 0.53, 84.06 2.44, 90.18 4.68 C96.3 6.92, 100.1 10.77, 100.72 13.66 C101.34 16.55, 99.44 19.89, 93.89 22.01 C88.35 24.13, 76.79 25.55, 67.46 26.4 C58.13 27.25, 47.26 27.62, 37.9 27.1 C28.54 26.58, 17.74 25.52, 11.29 23.29 C4.83 21.06, -0.48 16.51, -0.84 13.71 C-1.2 10.91, 3.36 8.68, 9.13 6.51 C14.9 4.34, 23.51 1.43, 33.76 0.67 C44.01 -0.08, 63.6 1.63, 70.63 1.98 C77.66 2.33, 76.4 2.64, 75.95 2.76 M51.36 0.85 C60.64 0.58, 71.79 0.16, 79.65 1.44 C87.51 2.72, 95.5 6, 98.5 8.55 C101.51 11.09, 100.83 14.16, 97.7 16.71 C94.57 19.25, 87.4 22.1, 79.72 23.82 C72.04 25.55, 61.52 26.94, 51.61 27.05 C41.7 27.16, 28.21 25.8, 20.24 24.49 C12.27 23.19, 6.95 21.54, 3.78 19.23 C0.61 16.92, -1.56 13.33, 1.22 10.62 C4 7.9, 12.48 4.91, 20.46 2.95 C28.43 1, 44.33 -0.59, 49.09 -1.12 C53.85 -1.64, 48.8 -0.44, 49.03 -0.19" stroke="none" stroke-width="0" fill="#ffffff"></path><path d="M53.33 -0.65 C63 -0.78, 75.12 0.3, 82.7 2.13 C90.27 3.97, 96.3 7.52, 98.77 10.37 C101.23 13.21, 100.8 16.88, 97.49 19.2 C94.18 21.53, 86.92 22.9, 78.91 24.3 C70.89 25.7, 59.34 27.5, 49.42 27.6 C39.49 27.7, 27.42 26.72, 19.38 24.91 C11.33 23.1, 3.83 19.49, 1.15 16.76 C-1.54 14.04, -0.27 11, 3.26 8.56 C6.78 6.12, 12.92 3.36, 22.29 2.12 C31.67 0.88, 52.5 1.18, 59.52 1.12 C66.55 1.07, 64.56 1.8, 64.43 1.77 M28.96 1.22 C36.91 -0.34, 47.88 -1.58, 57.69 -0.92 C67.5 -0.26, 80.9 3.2, 87.84 5.19 C94.78 7.18, 97.84 8.4, 99.33 11.02 C100.82 13.65, 101.11 18.28, 96.76 20.95 C92.41 23.62, 82.12 26.21, 73.25 27.05 C64.38 27.88, 53.31 26.56, 43.52 25.95 C33.73 25.35, 21.82 24.89, 14.5 23.4 C7.18 21.92, 0.92 19.53, -0.4 17.06 C-1.72 14.59, 1.95 11.4, 6.56 8.59 C11.17 5.79, 23.39 1.38, 27.26 0.22 C31.13 -0.94, 29.05 1.18, 29.79 1.62" stroke="#364fc7" stroke-width="1" fill="none"></path></g><g transform="translate(1181.2266430329432 129.99999999999983) rotate(0 43.999999999999886 13)"><text x="44" y="18" font-family="Virgil, Segoe UI Emoji" font-size="20px" fill="#000000" text-anchor="middle" style="white-space: pre;" direction="ltr">Postgres</text></g><g stroke-linecap="round"><g transform="translate(973.1190381937108 283.02732005017873) rotate(0 -9.487993577998964 73.2109770326228)"><path d="M0.1 -0.81 C-2.9 23.59, -15.85 122.56, -19.07 147.23" stroke="#000000" stroke-width="1.5" fill="none" stroke-dasharray="8 9"></path></g><g transform="translate(973.1190381937108 283.02732005017873) rotate(0 -9.487993577998964 73.2109770326228)"><path d="M-26.95 116.87 C-22.64 122.8, -21.23 128.63, -20.26 147.9" stroke="#000000" stroke-width="1.5" fill="none"></path></g><g transform="translate(973.1190381937108 283.02732005017873) rotate(0 -9.487993577998964 73.2109770326228)"><path d="M-6.6 119.53 C-6.6 124.91, -9.48 130.19, -20.26 147.9" stroke="#000000" stroke-width="1.5" fill="none"></path></g></g><g stroke-linecap="round" transform="translate(874.1412448398339 630.101485176302) rotate(0 66.5 39.5)"><path d="M64.96 0.96 C75.28 0.32, 88.57 2.45, 98.41 5.41 C108.25 8.37, 118.2 13.16, 124.02 18.72 C129.84 24.28, 133.14 32, 133.33 38.76 C133.52 45.52, 130.57 53.45, 125.16 59.27 C119.74 65.09, 110.33 70.39, 100.82 73.66 C91.32 76.93, 79.23 79.01, 68.11 78.91 C57 78.81, 43.9 76.2, 34.12 73.04 C24.34 69.88, 15.06 65.55, 9.42 59.96 C3.78 54.38, 0.27 46.03, 0.25 39.54 C0.23 33.06, 4.08 26.61, 9.3 21.03 C14.52 15.45, 21.48 9.62, 31.58 6.08 C41.68 2.54, 62.71 0.48, 69.91 -0.21 C77.1 -0.89, 74.94 1.25, 74.74 1.95 M89.55 3.44 C99.87 4.84, 111.05 8.83, 118.19 13.64 C125.34 18.45, 130.45 25.36, 132.4 32.29 C134.36 39.22, 134.05 48.94, 129.93 55.2 C125.81 61.46, 116.48 65.94, 107.68 69.86 C98.88 73.77, 87.99 77.48, 77.12 78.7 C66.26 79.92, 52.99 79.6, 42.49 77.18 C31.99 74.76, 21.09 69.42, 14.14 64.17 C7.19 58.92, 2.29 52.07, 0.8 45.67 C-0.7 39.26, 1.36 31.85, 5.17 25.76 C8.98 19.66, 15.15 13.34, 23.66 9.12 C32.18 4.9, 45.09 1.28, 56.25 0.42 C67.41 -0.44, 85.19 3.43, 90.61 3.96 C96.04 4.49, 89.32 3.36, 88.82 3.59" stroke="none" stroke-width="0" fill="#fff"></path><path d="M94.91 3.51 C105.01 5.47, 116.13 11.14, 122.35 16.68 C128.56 22.21, 131.5 30.11, 132.19 36.72 C132.88 43.33, 131.17 50.38, 126.5 56.32 C121.82 62.25, 113.4 68.43, 104.13 72.35 C94.85 76.27, 81.82 79.32, 70.85 79.83 C59.87 80.34, 48.07 78.32, 38.27 75.39 C28.48 72.45, 18.43 67.75, 12.08 62.23 C5.73 56.72, 0.96 49.05, 0.17 42.3 C-0.62 35.54, 2.52 27.79, 7.33 21.71 C12.14 15.64, 19.85 9.42, 29.03 5.87 C38.2 2.32, 49.46 0.02, 62.39 0.39 C75.32 0.77, 98.17 6.14, 106.62 8.13 C115.07 10.13, 113.78 11.92, 113.08 12.36 M44.25 3.28 C54.06 0.7, 68.58 -1.57, 79.32 -0.65 C90.05 0.28, 100.42 4.25, 108.64 8.83 C116.86 13.41, 124.74 20.68, 128.62 26.84 C132.49 32.99, 134.09 39.18, 131.9 45.75 C129.7 52.32, 122.87 61.28, 115.44 66.28 C108.01 71.28, 97.51 73.92, 87.33 75.76 C77.16 77.6, 64.99 78.19, 54.39 77.33 C43.79 76.46, 32.13 74.71, 23.74 70.58 C15.35 66.45, 7.85 58.83, 4.05 52.54 C0.24 46.25, -1.1 39.54, 0.92 32.84 C2.94 26.15, 8.77 17.23, 16.18 12.36 C23.59 7.49, 40.47 5.26, 45.36 3.61 C50.25 1.96, 45.2 2.02, 45.52 2.49" stroke="#000000" stroke-width="1" fill="none"></path></g><g transform="translate(879.1412448398339 659.101485176302) rotate(0 61.5 10.5)"><text x="61.5" y="15" font-family="Virgil, Segoe UI Emoji" font-size="16px" fill="#000000" text-anchor="middle" style="white-space: pre;" direction="ltr">ObjectDetector</text></g><g stroke-linecap="round" transform="translate(1087.955646531347 589.4699565285455) rotate(0 119 36)"><path d="M0.29 -1.22 L239.33 -1.79 L236.68 70.6 L-0.37 72.44" stroke="none" stroke-width="0" fill="#fff"></path><path d="M0.92 -0.03 C74.33 0.13, 148.99 1.26, 237.66 0.16 M-0.13 -0.4 C94.6 -1.06, 188.05 -0.6, 238.73 0.1 M239.98 0.9 C239.73 26.7, 238.07 51.13, 238.36 70.53 M237.3 -0.34 C238.49 15.51, 238.53 31.62, 238.71 72.81 M237.09 72.24 C187.68 70.08, 139.17 69.57, -0.8 73.42 M237.7 71.26 C153.39 70.26, 68.92 69.7, 0.78 71.94 M0.89 72.23 C-0.34 45.12, -0.89 15.67, -1.38 1.47 M-0.6 71.17 C-0.53 50.17, -0.22 28.54, -0.82 -0.65" stroke="#000000" stroke-width="1" fill="none"></path></g><g transform="translate(1092.955646531347 614.9699565285455) rotate(0 114 10.5)"><text x="114" y="15" font-family="Virgil, Segoe UI Emoji" font-size="16px" fill="#000000" text-anchor="middle" style="white-space: pre;" direction="ltr">FakeObjectDetector</text></g><g stroke-linecap="round" transform="translate(939.2662530950245 807.9832898270281) rotate(0 117.65287531188505 37.685686623338256)"><path d="M-1.83 -0.12 L233.33 0.72 L234.39 76.31 L-1.53 76.69" stroke="none" stroke-width="0" fill="#fff"></path><path d="M-1.56 1.56 C68.39 1.55, 137.74 -0.16, 236.05 0.2 M0.03 -0.58 C70.93 0.53, 140.47 1.2, 234.8 -0.7 M233.57 -1.64 C233.59 17.86, 233.69 36.47, 233.51 74.05 M234.66 -0.03 C234.54 18.27, 235.22 34.95, 236.12 75.71 M235.67 74.52 C142.03 77.33, 45.75 76.94, -1.61 75.1 M235.15 75.96 C151.02 76.07, 64.87 77.04, 0.84 75.57 M-1.78 74.36 C0.85 56.46, 2.46 39.5, 0.26 -0.17 M-0.39 74.65 C0.89 47.15, -0.03 18.88, -0.88 -0.64" stroke="#000000" stroke-width="1" fill="none"></path></g><g transform="translate(944.2662530950245 835.168976450366) rotate(0 112.5 10.5)"><text x="112.5" y="15" font-family="Virgil, Segoe UI Emoji" font-size="16px" fill="#000000" text-anchor="middle" style="white-space: pre;" direction="ltr">TFSObjectDetector</text></g><g stroke-linecap="round"><g transform="translate(1300.364733313632 879.2851307900305) rotate(0 32.15898363384463 -18.50003097237493)" fill-rule="evenodd"><path d="M0.12 -62.17 C0.12 -62.17, 0.12 -62.17, 0.12 -62.17 M0.12 -62.17 C0.12 -62.17, 0.12 -62.17, 0.12 -62.17 M0.52 -56.53 C3.52 -59.99, 6.53 -63.44, 8.39 -65.58 M0.52 -56.53 C2.51 -58.82, 4.51 -61.12, 8.39 -65.58 M0.26 -50.13 C5.98 -56.71, 11.69 -63.29, 16.66 -69 M0.26 -50.13 C3.72 -54.11, 7.18 -58.1, 16.66 -69 M0.65 -44.49 C7.54 -52.41, 14.43 -60.34, 24.92 -72.41 M0.65 -44.49 C7.52 -52.39, 14.4 -60.3, 24.92 -72.41 M1.04 -38.84 C12.68 -52.23, 24.32 -65.62, 33.19 -75.82 M1.04 -38.84 C13.53 -53.2, 26.01 -67.56, 33.19 -75.82 M9.31 -42.26 C16.72 -50.78, 24.13 -59.3, 41.46 -79.24 M9.31 -42.26 C20.25 -54.83, 31.18 -67.41, 41.46 -79.24 M17.58 -45.67 C27.23 -56.77, 36.88 -67.87, 49.73 -82.65 M17.58 -45.67 C27.42 -56.99, 37.26 -68.31, 49.73 -82.65 M25.85 -49.08 C36.64 -61.5, 47.43 -73.91, 57.99 -86.06 M25.85 -49.08 C37.63 -62.64, 49.41 -76.19, 57.99 -86.06 M34.77 -53.25 C45 -65.02, 55.23 -76.79, 64.29 -87.21 M34.77 -53.25 C45.83 -65.97, 56.89 -78.7, 64.29 -87.21 M43.04 -56.66 C50.96 -65.78, 58.88 -74.89, 64.03 -80.81 M43.04 -56.66 C49.66 -64.28, 56.28 -71.9, 64.03 -80.81 M42.78 -50.27 C51.4 -60.19, 60.03 -70.12, 64.43 -75.17 M42.78 -50.27 C50.68 -59.36, 58.58 -68.45, 64.43 -75.17 M43.17 -44.62 C49.41 -51.8, 55.65 -58.98, 64.16 -68.77 M43.17 -44.62 C48.43 -50.67, 53.69 -56.72, 64.16 -68.77 M42.91 -38.23 C50.87 -47.38, 58.83 -56.54, 64.56 -63.13 M42.91 -38.23 C49.6 -45.92, 56.29 -53.61, 64.56 -63.13 M42.65 -31.83 C49.18 -39.34, 55.7 -46.85, 64.3 -56.73 M42.65 -31.83 C47.99 -37.98, 53.34 -44.12, 64.3 -56.73 M43.04 -26.18 C49.09 -33.14, 55.13 -40.09, 64.69 -51.09 M43.04 -26.18 C51.69 -36.13, 60.34 -46.08, 64.69 -51.09 M42.78 -19.79 C50.58 -28.76, 58.37 -37.72, 64.43 -44.69 M42.78 -19.79 C49.06 -27.02, 55.35 -34.24, 64.43 -44.69 M43.18 -14.14 C51.25 -23.43, 59.33 -32.73, 64.83 -39.05 M43.18 -14.14 C49.46 -21.37, 55.74 -28.6, 64.83 -39.05 M42.91 -7.75 C49.56 -15.4, 56.21 -23.05, 64.56 -32.65 M42.91 -7.75 C51.08 -17.15, 59.26 -26.55, 64.56 -32.65 M43.31 -2.1 C47.69 -7.15, 52.08 -12.19, 64.96 -27.01 M43.31 -2.1 C51.88 -11.97, 60.46 -21.83, 64.96 -27.01 M43.05 4.29 C50.43 -4.19, 57.81 -12.68, 64.7 -20.61 M43.05 4.29 C47.72 -1.09, 52.4 -6.47, 64.7 -20.61 M42.79 10.69 C50.27 2.08, 57.76 -6.53, 65.09 -14.97 M42.79 10.69 C51.54 0.62, 60.3 -9.45, 65.09 -14.97 M43.18 16.34 C50.18 8.28, 57.18 0.23, 64.83 -8.57 M43.18 16.34 C50.21 8.25, 57.25 0.16, 64.83 -8.57 M42.92 22.73 C48.42 16.41, 53.92 10.08, 64.57 -2.17 M42.92 22.73 C49.77 14.86, 56.61 6.98, 64.57 -2.17 M43.31 28.38 C49.4 21.38, 55.49 14.37, 64.96 3.47 M43.31 28.38 C50.53 20.08, 57.74 11.78, 64.96 3.47 M43.05 34.77 C48.54 28.46, 54.02 22.16, 64.7 9.87 M43.05 34.77 C48.79 28.18, 54.52 21.58, 64.7 9.87 M44.1 39.66 C50.49 32.31, 56.88 24.96, 65.1 15.51 M44.1 39.66 C50.02 32.86, 55.94 26.05, 65.1 15.51 M47.78 41.53 C53.64 34.79, 59.5 28.04, 64.83 21.91 M47.78 41.53 C52.84 35.71, 57.9 29.89, 64.83 21.91 M51.45 43.4 C54.86 39.48, 58.27 35.56, 65.23 27.55 M51.45 43.4 C55.89 38.3, 60.33 33.19, 65.23 27.55 M55.13 45.27 C58.56 41.32, 61.99 37.37, 64.97 33.95 M55.13 45.27 C58.39 41.52, 61.64 37.77, 64.97 33.95 M58.15 47.9 C59.8 45.99, 61.45 44.09, 65.36 39.59 M58.15 47.9 C59.71 46.1, 61.27 44.3, 65.36 39.59 M61.82 49.77 C62.5 48.98, 63.18 48.2, 65.1 45.99 M61.82 49.77 C62.64 48.83, 63.45 47.89, 65.1 45.99 M42.66 37.8 C42.66 37.8, 42.66 37.8, 42.66 37.8 M42.66 37.8 C42.66 37.8, 42.66 37.8, 42.66 37.8 M62.65 49.88 C57.34 45.27, 52.04 40.66, 43.02 32.82 M62.65 49.88 C54.98 43.21, 47.32 36.55, 43.02 32.82 M66.78 48.17 C59.5 41.84, 52.21 35.51, 42.63 27.17 M66.78 48.17 C60.24 42.48, 53.7 36.8, 42.63 27.17 M66.38 42.53 C61.6 38.36, 56.81 34.2, 42.99 22.19 M66.38 42.53 C60.33 37.26, 54.27 31.99, 42.99 22.19 M66.74 37.54 C60.71 32.29, 54.68 27.05, 42.59 16.54 M66.74 37.54 C59.24 31.02, 51.74 24.49, 42.59 16.54 M66.35 31.9 C59.56 25.99, 52.77 20.09, 42.95 11.56 M66.35 31.9 C61.27 27.48, 56.19 23.07, 42.95 11.56 M66.71 26.91 C58.23 19.54, 49.75 12.17, 42.56 5.91 M66.71 26.91 C57.93 19.28, 49.16 11.65, 42.56 5.91 M66.32 21.27 C58.79 14.73, 51.27 8.19, 42.92 0.93 M66.32 21.27 C57.22 13.35, 48.12 5.44, 42.92 0.93 M66.68 16.28 C58.36 9.05, 50.05 1.83, 42.52 -4.72 M66.68 16.28 C58.32 9.01, 49.96 1.75, 42.52 -4.72 M1.77 -40.14 C1.77 -40.14, 1.77 -40.14, 1.77 -40.14 M1.77 -40.14 C1.77 -40.14, 1.77 -40.14, 1.77 -40.14 M66.28 10.64 C60.86 5.92, 55.44 1.21, 42.88 -9.7 M66.28 10.64 C57.24 2.77, 48.19 -5.09, 42.88 -9.7 M5.9 -41.85 C4.24 -43.3, 2.57 -44.75, 1.38 -45.79 M5.9 -41.85 C4.66 -42.93, 3.41 -44.02, 1.38 -45.79 M66.64 5.65 C57.44 -2.35, 48.24 -10.34, 42.49 -15.35 M66.64 5.65 C58.81 -1.16, 50.99 -7.96, 42.49 -15.35 M10.04 -43.56 C7.84 -45.46, 5.65 -47.37, 0.98 -51.43 M10.04 -43.56 C6.94 -46.25, 3.84 -48.95, 0.98 -51.43 M66.25 0 C61.04 -4.52, 55.83 -9.05, 42.85 -20.33 M66.25 0 C61.37 -4.23, 56.5 -8.47, 42.85 -20.33 M14.17 -45.26 C9.3 -49.5, 4.42 -53.74, 1.34 -56.42 M14.17 -45.26 C9.95 -48.93, 5.72 -52.61, 1.34 -56.42 M65.85 -5.64 C57.89 -12.56, 49.92 -19.48, 43.21 -25.32 M65.85 -5.64 C61.32 -9.58, 56.79 -13.52, 43.21 -25.32 M18.31 -46.97 C13.86 -50.83, 9.42 -54.69, 0.19 -62.72 M18.31 -46.97 C13.52 -51.13, 8.73 -55.29, 0.19 -62.72 M66.21 -10.63 C60.89 -15.25, 55.56 -19.88, 42.82 -30.96 M66.21 -10.63 C59.86 -16.14, 53.52 -21.66, 42.82 -30.96 M22.44 -48.68 C18.51 -52.09, 14.57 -55.51, 4.33 -64.42 M22.44 -48.68 C16.33 -53.99, 10.21 -59.3, 4.33 -64.42 M65.82 -16.27 C59.63 -21.65, 53.44 -27.03, 43.18 -35.95 M65.82 -16.27 C58.92 -22.26, 52.03 -28.26, 43.18 -35.95 M26.57 -50.38 C21.35 -54.92, 16.13 -59.46, 8.46 -66.13 M26.57 -50.38 C19.34 -56.67, 12.1 -62.96, 8.46 -66.13 M66.18 -21.26 C57.38 -28.9, 48.58 -36.55, 42.78 -41.59 M66.18 -21.26 C56.97 -29.26, 47.77 -37.26, 42.78 -41.59 M30.71 -52.09 C24.09 -57.84, 17.48 -63.59, 12.59 -67.84 M30.71 -52.09 C25.97 -56.21, 21.23 -60.33, 12.59 -67.84 M65.78 -26.9 C57.02 -34.52, 48.25 -42.14, 43.14 -46.58 M65.78 -26.9 C58.03 -33.64, 50.28 -40.38, 43.14 -46.58 M34.84 -53.8 C28.16 -59.61, 21.48 -65.41, 16.73 -69.54 M34.84 -53.8 C27.66 -60.04, 20.47 -66.29, 16.73 -69.54 M66.14 -31.89 C60.95 -36.4, 55.75 -40.92, 42.75 -52.22 M66.14 -31.89 C57.55 -39.35, 48.96 -46.82, 42.75 -52.22 M38.97 -55.5 C32.92 -60.77, 26.86 -66.03, 20.86 -71.25 M38.97 -55.5 C34.66 -59.25, 30.35 -63, 20.86 -71.25 M65.75 -37.53 C51.08 -50.28, 36.4 -63.04, 24.99 -72.96 M65.75 -37.53 C49.69 -51.49, 33.63 -65.45, 24.99 -72.96 M66.11 -42.52 C54.63 -52.49, 43.15 -62.47, 29.13 -74.66 M66.11 -42.52 C55.75 -51.52, 45.39 -60.53, 29.13 -74.66 M65.71 -48.16 C54.53 -57.88, 43.35 -67.6, 33.26 -76.37 M65.71 -48.16 C54.01 -58.33, 42.31 -68.5, 33.26 -76.37 M66.07 -53.15 C58.61 -59.63, 51.16 -66.11, 37.39 -78.08 M66.07 -53.15 C55.22 -62.58, 44.37 -72.01, 37.39 -78.08 M65.68 -58.79 C58.84 -64.74, 51.99 -70.69, 41.53 -79.78 M65.68 -58.79 C58.07 -65.4, 50.47 -72.01, 41.53 -79.78 M65.28 -64.43 C58.21 -70.58, 51.14 -76.73, 45.66 -81.49 M65.28 -64.43 C60.4 -68.68, 55.52 -72.92, 45.66 -81.49 M65.64 -69.42 C60.13 -74.21, 54.62 -79, 49.8 -83.2 M65.64 -69.42 C60.63 -73.78, 55.62 -78.13, 49.8 -83.2 M65.25 -75.06 C61.82 -78.04, 58.4 -81.02, 53.93 -84.9 M65.25 -75.06 C61.07 -78.69, 56.89 -82.33, 53.93 -84.9 M65.61 -80.05 C63.54 -81.84, 61.48 -83.64, 58.06 -86.61 M65.61 -80.05 C63.08 -82.25, 60.55 -84.44, 58.06 -86.61 M65.22 -85.69 C64.03 -86.72, 62.85 -87.75, 62.2 -88.32 M65.22 -85.69 C64.38 -86.42, 63.54 -87.15, 62.2 -88.32" stroke="#fd7e14" stroke-width="0.5" fill="none"></path><path d="M0 -62.03 C24.44 -72.07, 48.88 -82.12, 62.94 -87.9 M0 -62.03 C22 -71.07, 44.01 -80.12, 62.94 -87.9 M62.94 -87.9 C63.32 -50.39, 63.69 -12.87, 64.32 50.9 M62.94 -87.9 C63.41 -40.34, 63.89 7.22, 64.32 50.9 M64.32 50.9 C58.61 47.47, 52.9 44.04, 43 38.1 M64.32 50.9 C56.39 46.14, 48.46 41.38, 43 38.1 M43 38.1 C42.94 15.76, 42.88 -6.59, 42.75 -56.58 M43 38.1 C42.92 6.07, 42.83 -25.96, 42.75 -56.58 M42.75 -56.58 C26.98 -49.99, 11.21 -43.39, 0.99 -39.12 M42.75 -56.58 C27.61 -50.25, 12.47 -43.92, 0.99 -39.12 M0.99 -39.12 C0.66 -46.77, 0.33 -54.42, 0 -62.03 M0.99 -39.12 C0.75 -44.71, 0.5 -50.29, 0 -62.03 M0 -62.03 C0 -62.03, 0 -62.03, 0 -62.03 M0 -62.03 C0 -62.03, 0 -62.03, 0 -62.03" stroke="#d9480f" stroke-width="1" fill="none"></path></g></g><g stroke-linecap="round"><g transform="translate(1371.18017549726 790.8875512767797) rotate(0 30.973058531247943 69.53905112700477)" fill-rule="evenodd"><path d="M0 0 C0 0, 0 0, 0 0 M0 0 C0 0, 0 0, 0 0 M-0.26 6.4 C1.29 4.61, 2.84 2.82, 4.33 1.11 M-0.26 6.4 C0.78 5.2, 1.83 4, 4.33 1.11 M0.13 12.04 C3.27 8.43, 6.41 4.82, 8.01 2.98 M0.13 12.04 C2.52 9.3, 4.9 6.56, 8.01 2.98 M-0.13 18.44 C4.01 13.68, 8.15 8.91, 12.34 4.1 M-0.13 18.44 C3.23 14.57, 6.6 10.7, 12.34 4.1 M0.27 24.08 C3.67 20.16, 7.08 16.24, 16.01 5.97 M0.27 24.08 C3.92 19.88, 7.57 15.67, 16.01 5.97 M0 30.48 C5.49 24.17, 10.97 17.87, 20.34 7.08 M0 30.48 C5.28 24.41, 10.56 18.34, 20.34 7.08 M0.4 36.12 C5.38 30.39, 10.37 24.66, 24.02 8.95 M0.4 36.12 C6.98 28.55, 13.57 20.97, 24.02 8.95 M0.14 42.52 C9.16 32.14, 18.18 21.76, 28.35 10.07 M0.14 42.52 C7.61 33.92, 15.08 25.33, 28.35 10.07 M0.53 48.16 C12.96 33.86, 25.39 19.56, 32.02 11.94 M0.53 48.16 C10.95 36.18, 21.37 24.2, 32.02 11.94 M0.27 54.56 C5.17 48.93, 10.06 43.3, 23.23 28.15 M0.27 54.56 C7.59 46.14, 14.91 37.73, 23.23 28.15 M23.23 28.15 C27.05 23.75, 30.87 19.36, 36.35 13.05 M23.23 28.15 C27.04 23.77, 30.85 19.39, 36.35 13.05 M0.67 60.2 C8.28 51.45, 15.89 42.7, 22.97 34.54 M0.67 60.2 C7.74 52.06, 14.82 43.92, 22.97 34.54 M26.91 30.02 C29.98 26.48, 33.05 22.95, 40.03 14.92 M26.91 30.02 C31.8 24.39, 36.7 18.76, 40.03 14.92 M0.4 66.6 C6.28 59.85, 12.15 53.09, 23.37 40.19 M0.4 66.6 C7.79 58.11, 15.17 49.61, 23.37 40.19 M31.24 31.13 C34.77 27.07, 38.29 23.02, 44.36 16.04 M31.24 31.13 C33.99 27.97, 36.74 24.81, 44.36 16.04 M0.8 72.25 C9.79 61.91, 18.77 51.57, 25.07 44.32 M0.8 72.25 C7.02 65.09, 13.23 57.94, 25.07 44.32 M34.91 33 C38.38 29.01, 41.85 25.02, 48.69 17.15 M34.91 33 C39.65 27.55, 44.39 22.1, 48.69 17.15 M0.54 78.64 C7.83 70.25, 15.13 61.86, 28.75 46.19 M0.54 78.64 C6.45 71.84, 12.37 65.03, 28.75 46.19 M38.59 34.87 C43.41 29.33, 48.22 23.79, 52.37 19.02 M38.59 34.87 C43.2 29.57, 47.81 24.26, 52.37 19.02 M0.93 84.29 C12.38 71.12, 23.82 57.96, 33.08 47.31 M0.93 84.29 C11.71 71.89, 22.49 59.48, 33.08 47.31 M42.92 35.98 C47.61 30.58, 52.31 25.18, 56.7 20.14 M42.92 35.98 C46.42 31.96, 49.92 27.93, 56.7 20.14 M0.67 90.68 C6.6 83.86, 12.54 77.04, 23.63 64.27 M0.67 90.68 C8.7 81.44, 16.73 72.2, 23.63 64.27 M23.63 64.27 C27.75 59.53, 31.87 54.79, 36.75 49.17 M23.63 64.27 C28.73 58.4, 33.83 52.54, 36.75 49.17 M46.59 37.85 C49.66 34.33, 52.73 30.8, 60.37 22.01 M46.59 37.85 C49.82 34.14, 53.05 30.43, 60.37 22.01 M1.07 96.33 C9.29 86.86, 17.52 77.39, 23.37 70.67 M1.07 96.33 C8.62 87.64, 16.17 78.95, 23.37 70.67 M27.31 66.14 C30.98 61.92, 34.65 57.69, 41.08 50.29 M27.31 66.14 C31.9 60.86, 36.49 55.57, 41.08 50.29 M50.27 39.72 C54.63 34.7, 59 29.68, 64.05 23.87 M50.27 39.72 C54.66 34.67, 59.06 29.61, 64.05 23.87 M0.8 102.72 C6.98 95.62, 13.15 88.52, 23.77 76.31 M0.8 102.72 C6.69 95.95, 12.59 89.17, 23.77 76.31 M30.98 68.01 C36.2 62, 41.43 55.99, 44.76 52.16 M30.98 68.01 C34.54 63.92, 38.09 59.83, 44.76 52.16 M54.6 40.84 C57.08 37.99, 59.55 35.14, 63.79 30.27 M54.6 40.84 C58.06 36.86, 61.53 32.87, 63.79 30.27 M1.2 108.37 C7.63 100.97, 14.07 93.56, 23.5 82.71 M1.2 108.37 C7.86 100.7, 14.53 93.04, 23.5 82.71 M34.66 69.88 C39.74 64.03, 44.83 58.18, 48.43 54.03 M34.66 69.88 C39.23 64.62, 43.8 59.36, 48.43 54.03 M58.28 42.71 C60.57 40.07, 62.87 37.43, 64.18 35.92 M58.28 42.71 C60.03 40.69, 61.79 38.66, 64.18 35.92 M0.94 114.77 C6.2 108.72, 11.45 102.67, 23.9 88.35 M0.94 114.77 C8.34 106.25, 15.74 97.74, 23.9 88.35 M38.99 70.99 C43.6 65.69, 48.2 60.39, 52.77 55.14 M38.99 70.99 C43.48 65.83, 47.97 60.67, 52.77 55.14 M1.33 120.41 C9.63 110.86, 17.93 101.32, 23.64 94.75 M1.33 120.41 C6.1 114.92, 10.87 109.43, 23.64 94.75 M42.66 72.86 C46.51 68.44, 50.36 64.01, 52.5 61.54 M42.66 72.86 C46.28 68.7, 49.9 64.53, 52.5 61.54 M1.07 126.81 C7.53 119.37, 14 111.94, 24.03 100.39 M1.07 126.81 C6.49 120.58, 11.9 114.35, 24.03 100.39 M46.34 74.73 C48.53 72.2, 50.73 69.68, 52.9 67.18 M46.34 74.73 C47.8 73.05, 49.26 71.37, 52.9 67.18 M1.46 132.45 C8.2 124.7, 14.93 116.96, 23.77 106.79 M1.46 132.45 C7.75 125.22, 14.04 117.98, 23.77 106.79 M50.01 76.6 C51.17 75.27, 52.33 73.93, 53.29 72.83 M50.01 76.6 C50.68 75.83, 51.35 75.06, 53.29 72.83 M1.2 138.85 C8.97 129.91, 16.75 120.97, 24.17 112.43 M1.2 138.85 C6.01 133.32, 10.82 127.79, 24.17 112.43 M4.22 141.47 C11.01 133.66, 17.8 125.86, 23.9 118.83 M4.22 141.47 C8.91 136.08, 13.59 130.69, 23.9 118.83 M14.46 135.79 C17.98 131.75, 21.49 127.7, 24.3 124.47 M14.46 135.79 C17.8 131.95, 21.15 128.1, 24.3 124.47 M1.11 138.95 C1.11 138.95, 1.11 138.95, 1.11 138.95 M1.11 138.95 C1.11 138.95, 1.11 138.95, 1.11 138.95 M5.25 137.25 C4.16 136.31, 3.08 135.37, 1.47 133.97 M5.25 137.25 C3.89 136.07, 2.53 134.89, 1.47 133.97 M8.62 134.88 C5.64 132.29, 2.66 129.7, 1.08 128.32 M8.62 134.88 C6.78 133.28, 4.94 131.68, 1.08 128.32 M12 132.52 C8.69 129.64, 5.39 126.77, 1.44 123.34 M12 132.52 C9.71 130.53, 7.41 128.53, 1.44 123.34 M16.14 130.81 C11.54 126.82, 6.94 122.82, 1.04 117.69 M16.14 130.81 C12.51 127.66, 8.89 124.51, 1.04 117.69 M19.52 128.45 C12.22 122.1, 4.92 115.76, 0.65 112.05 M19.52 128.45 C15.23 124.72, 10.93 120.99, 0.65 112.05 M23.65 126.74 C17.08 121.03, 10.51 115.32, 1.01 107.06 M23.65 126.74 C15.99 120.08, 8.33 113.42, 1.01 107.06 M26.27 123.73 C18.12 116.64, 9.97 109.55, 0.61 101.42 M26.27 123.73 C16.84 115.52, 7.4 107.32, 0.61 101.42 M25.88 118.08 C18.3 111.49, 10.72 104.9, 0.97 96.43 M25.88 118.08 C20 112.97, 14.12 107.86, 0.97 96.43 M26.24 113.1 C19.14 106.93, 12.05 100.76, 0.58 90.79 M26.24 113.1 C16.48 104.61, 6.73 96.13, 0.58 90.79 M25.84 107.45 C20.59 102.88, 15.33 98.31, 0.94 85.8 M25.84 107.45 C19.76 102.16, 13.67 96.87, 0.94 85.8 M25.45 101.81 C18.1 95.42, 10.75 89.03, 0.54 80.16 M25.45 101.81 C18.71 95.95, 11.97 90.09, 0.54 80.16 M25.81 96.82 C18.71 90.65, 11.6 84.47, 0.9 75.17 M25.81 96.82 C16.12 88.4, 6.43 79.97, 0.9 75.17 M25.42 91.18 C16.28 83.24, 7.15 75.3, 0.51 69.53 M25.42 91.18 C20.2 86.65, 14.99 82.12, 0.51 69.53 M25.78 86.19 C17.99 79.42, 10.2 72.65, 0.87 64.54 M25.78 86.19 C18.06 79.48, 10.34 72.78, 0.87 64.54 M25.38 80.55 C16.8 73.09, 8.22 65.63, 0.48 58.9 M25.38 80.55 C19.65 75.57, 13.92 70.59, 0.48 58.9 M25.74 75.56 C18.51 69.28, 11.28 62.99, 0.84 53.91 M25.74 75.56 C16.78 67.77, 7.81 59.98, 0.84 53.91 M25.35 69.92 C19.27 64.64, 13.2 59.36, 0.44 48.27 M25.35 69.92 C17.1 62.75, 8.85 55.58, 0.44 48.27 M23.44 62.96 C15.83 56.34, 8.21 49.72, 0.05 42.63 M23.44 62.96 C16.25 56.71, 9.06 50.46, 0.05 42.63 M35.88 68.47 C23.82 57.99, 11.75 47.5, 0.41 37.64 M35.88 68.47 C22.58 56.91, 9.28 45.35, 0.41 37.64 M50.58 75.95 C33.53 61.14, 16.49 46.32, 0.01 32 M50.58 75.95 C38.76 65.68, 26.93 55.4, 0.01 32 M50.94 70.96 C37.3 59.11, 23.66 47.25, 0.37 27.01 M50.94 70.96 C31.34 53.93, 11.73 36.89, 0.37 27.01 M50.54 65.32 C40.91 56.95, 31.28 48.57, 23.37 41.7 M50.54 65.32 C44.16 59.77, 37.77 54.22, 23.37 41.7 M23.37 41.7 C15.64 34.98, 7.91 28.26, -0.02 21.37 M23.37 41.7 C17.3 36.42, 11.23 31.14, -0.02 21.37 M50.9 60.33 C47.27 57.18, 43.65 54.03, 34.3 45.9 M50.9 60.33 C45.57 55.7, 40.25 51.07, 34.3 45.9 M22.98 36.06 C14.36 28.57, 5.74 21.07, 0.34 16.38 M22.98 36.06 C17.43 31.23, 11.88 26.41, 0.34 16.38 M50.51 54.69 C49.24 53.59, 47.97 52.48, 45.98 50.75 M50.51 54.69 C49.08 53.45, 47.65 52.21, 45.98 50.75 M23.34 31.07 C15.38 24.16, 7.43 17.24, -0.06 10.74 M23.34 31.07 C17.19 25.72, 11.03 20.38, -0.06 10.74 M23.7 26.09 C16.63 19.94, 9.55 13.79, 0.3 5.75 M23.7 26.09 C15.35 18.83, 7 11.57, 0.3 5.75 M35.38 30.94 C25.15 22.04, 14.91 13.15, -0.09 0.11 M35.38 30.94 C21.35 18.75, 7.32 6.55, -0.09 0.11 M47.06 35.79 C31.12 21.94, 15.18 8.08, 2.53 -2.91 M47.06 35.79 C29.39 20.43, 11.72 5.07, 2.53 -2.91 M62.51 43.93 C44.2 28.01, 25.89 12.09, 12.7 0.63 M62.51 43.93 C43.13 27.07, 23.74 10.22, 12.7 0.63 M62.12 38.28 C49.37 27.2, 36.61 16.11, 23.63 4.83 M62.12 38.28 C50.51 28.19, 38.89 18.09, 23.63 4.83 M62.48 33.3 C54.47 26.33, 46.45 19.36, 33.8 8.37 M62.48 33.3 C52.3 24.45, 42.12 15.6, 33.8 8.37 M62.09 27.65 C58.14 24.23, 54.2 20.8, 43.97 11.91 M62.09 27.65 C55.71 22.12, 49.34 16.58, 43.97 11.91" stroke="#fd7e14" stroke-width="0.5" fill="none"></path><path d="M0 0 C0.47 52.52, 0.95 105.04, 1.26 139.08 M0 0 C0.38 42.05, 0.76 84.09, 1.26 139.08 M1.26 139.08 C7.7 135.41, 14.13 131.75, 23.58 126.37 M1.26 139.08 C6.42 136.14, 11.58 133.2, 23.58 126.37 M23.58 126.37 C23.4 110.37, 23.22 94.36, 22.88 63.88 M23.58 126.37 C23.36 106.89, 23.14 87.41, 22.88 63.88 M22.88 63.88 C31.08 67.53, 39.29 71.17, 50.88 76.32 M22.88 63.88 C31.78 67.84, 40.68 71.79, 50.88 76.32 M50.88 76.32 C50.79 70.77, 50.7 65.22, 50.5 53.32 M50.88 76.32 C50.76 69.35, 50.65 62.39, 50.5 53.32 M50.5 53.32 C41.33 49.64, 32.17 45.96, 22.72 42.17 M50.5 53.32 C42.47 50.09, 34.44 46.87, 22.72 42.17 M22.72 42.17 C22.68 38.76, 22.64 35.35, 22.55 27.77 M22.72 42.17 C22.68 38.43, 22.63 34.69, 22.55 27.77 M22.55 27.77 C32.24 31.78, 41.92 35.78, 61.95 44.06 M22.55 27.77 C32.34 31.82, 42.13 35.87, 61.95 44.06 M61.95 44.06 C61.92 37.38, 61.89 30.69, 61.86 22.33 M61.95 44.06 C61.92 36.88, 61.89 29.69, 61.86 22.33 M61.86 22.33 C37.22 13.44, 12.58 4.54, 0 0 M61.86 22.33 C42.46 15.33, 23.05 8.32, 0 0 M0 0 C0 0, 0 0, 0 0 M0 0 C0 0, 0 0, 0 0" stroke="#d9480f" stroke-width="1" fill="none"></path></g></g><g transform="translate(1268.189477738373 937.2349579357024) rotate(0 62.99333831417243 25.02071848927403)"><text x="0" y="35.04143697854816" font-family="Virgil, Segoe UI Emoji" font-size="39.42938955517829px" fill="#e67700" text-anchor="start" style="white-space: pre;" direction="ltr">Tensor</text></g><g transform="translate(1397.840296692985 938.4967927321909) rotate(0 39.0028847038684 25.02071848927403)"><text x="0" y="35.04143697854816" font-family="Virgil, Segoe UI Emoji" font-size="39.42938955517827px" fill="#95989c" text-anchor="start" style="white-space: pre;" direction="ltr">Flow</text></g><g stroke-linecap="round"><g transform="translate(1285.519523607448 874.9691871195189) rotate(0 -50.84972560276253 -17.048040633478422)"><path d="M0.14 1 C-16.9 -4.63, -84.08 -27.58, -101.32 -33.57 M-1.25 0.48 C-18.46 -5.47, -85.21 -29.39, -101.84 -35.1" stroke="#000000" stroke-width="1" fill="none"></path></g><g transform="translate(1285.519523607448 874.9691871195189) rotate(0 -50.84972560276253 -17.048040633478422)"><path d="M-70.17 -34.07 C-81.26 -37.21, -94.88 -34.73, -102.38 -33.24 M-71.26 -35.34 C-81.76 -35.63, -91.67 -34.54, -101.9 -34.51" stroke="#000000" stroke-width="1" fill="none"></path></g><g transform="translate(1285.519523607448 874.9691871195189) rotate(0 -50.84972560276253 -17.048040633478422)"><path d="M-76.98 -14.71 C-85.54 -25.16, -96.58 -29.99, -102.38 -33.24 M-78.07 -15.98 C-86.21 -22.88, -93.8 -28.4, -101.9 -34.51" stroke="#000000" stroke-width="1" fill="none"></path></g></g><g stroke-linecap="round"><g transform="translate(1080.5994964713423 636.6836784719333) rotate(0 -36.33555083889371 8.670289319031099)"><path d="M-0.12 1.07 C-12.29 3.72, -60.27 13.68, -72.55 16.28" stroke="#000000" stroke-width="1.5" fill="none" stroke-dasharray="8 9"></path></g><g transform="translate(1080.5994964713423 636.6836784719333) rotate(0 -36.33555083889371 8.670289319031099)"><path d="M-45.29 1.85 C-55.69 5.16, -63.79 9.41, -72.48 18.05" stroke="#000000" stroke-width="1.5" fill="none"></path></g><g transform="translate(1080.5994964713423 636.6836784719333) rotate(0 -36.33555083889371 8.670289319031099)"><path d="M-41.08 21.94 C-52.98 18.38, -62.51 15.75, -72.48 18.05" stroke="#000000" stroke-width="1.5" fill="none"></path></g></g><g stroke-linecap="round"><g transform="translate(960.4549418161728 799.9058595581757) rotate(0 -5.70995601108541 -39.72289812850215)"><path d="M0.15 1.06 C-1.89 -12.3, -9.54 -66.97, -11.57 -80.51" stroke="#000000" stroke-width="1.5" fill="none" stroke-dasharray="8 9"></path></g><g transform="translate(960.4549418161728 799.9058595581757) rotate(0 -5.70995601108541 -39.72289812850215)"><path d="M4.39 -52.91 C-1.09 -63.02, -5.6 -74.8, -12.66 -80.57" stroke="#000000" stroke-width="1.5" fill="none"></path></g><g transform="translate(960.4549418161728 799.9058595581757) rotate(0 -5.70995601108541 -39.72289812850215)"><path d="M-15.93 -49.98 C-14.16 -61.16, -11.44 -73.98, -12.66 -80.57" stroke="#000000" stroke-width="1.5" fill="none"></path></g></g><g stroke-linecap="round" transform="translate(460.17361000444726 394.2288437668687) rotate(0 123.45236046843456 38.82149700265239)"><path d="M144.53 1.08 C159.71 1.24, 176.4 2.87, 189.73 5.55 C203.06 8.22, 215.53 12.94, 224.53 17.13 C233.53 21.32, 240.33 26.12, 243.75 30.69 C247.18 35.26, 247.58 39.81, 245.08 44.55 C242.57 49.29, 237.29 54.79, 228.73 59.11 C220.16 63.43, 206.72 67.48, 193.7 70.48 C180.68 73.48, 165.71 75.97, 150.6 77.09 C135.5 78.21, 118.51 78.16, 103.07 77.21 C87.64 76.26, 71.41 73.97, 58.01 71.4 C44.6 68.82, 31.85 65.64, 22.64 61.76 C13.44 57.89, 6.19 52.92, 2.76 48.16 C-0.68 43.39, -0.65 38.17, 2.04 33.17 C4.73 28.16, 10.47 22.31, 18.9 18.11 C27.34 13.91, 39.62 10.76, 52.64 7.96 C65.67 5.16, 79.95 2.28, 97.07 1.28 C114.19 0.28, 144.42 1.7, 155.37 1.96 C166.32 2.21, 163.57 2.18, 162.76 2.81 M181.54 5.84 C195.98 7.78, 209.57 11.17, 219.57 14.98 C229.56 18.79, 237.04 23.92, 241.54 28.68 C246.03 33.44, 247.99 38.97, 246.53 43.54 C245.08 48.1, 240.34 51.76, 232.79 56.06 C225.24 60.36, 213.35 65.82, 201.23 69.35 C189.11 72.89, 174.85 75.99, 160.08 77.26 C145.3 78.54, 128.1 77.52, 112.58 77 C97.05 76.48, 80.75 76.14, 66.92 74.13 C53.08 72.11, 39.7 68.92, 29.56 64.91 C19.42 60.9, 10.88 55.08, 6.08 50.07 C1.27 45.06, -0.73 39.6, 0.72 34.86 C2.17 30.11, 7.59 25.8, 14.8 21.6 C22.02 17.41, 32.04 12.79, 44.01 9.69 C55.99 6.59, 71.36 4.45, 86.65 3.02 C101.94 1.58, 119.86 0.98, 135.75 1.09 C151.65 1.21, 174.67 3, 182.01 3.69 C189.34 4.37, 180.67 4.73, 179.76 5.22" stroke="none" stroke-width="0" fill="#fff"></path><path d="M93.69 0.78 C107.71 -1.18, 126.54 -1.16, 142.11 -0.25 C157.68 0.66, 173.73 3.49, 187.12 6.24 C200.51 8.99, 213.03 12.26, 222.46 16.25 C231.89 20.24, 239.74 25.33, 243.71 30.18 C247.68 35.03, 248.87 40.44, 246.28 45.35 C243.7 50.26, 236.36 55.51, 228.18 59.63 C220.01 63.74, 209.77 67.24, 197.22 70.03 C184.66 72.81, 168.27 75.06, 152.84 76.33 C137.42 77.6, 120.2 78.4, 104.66 77.65 C89.11 76.89, 73.03 74.47, 59.57 71.81 C46.12 69.15, 33.42 65.6, 23.95 61.69 C14.47 57.78, 6.41 53.12, 2.73 48.36 C-0.95 43.6, -0.69 38.11, 1.87 33.14 C4.43 28.18, 10.06 22.7, 18.07 18.55 C26.08 14.4, 34.93 11.14, 49.94 8.24 C64.94 5.35, 96.28 2.56, 108.08 1.17 C119.89 -0.22, 120.74 -0.69, 120.76 -0.11 M91.2 2.21 C105.05 0.39, 124.04 0.94, 139.44 1.61 C154.84 2.28, 169.76 4.03, 183.58 6.23 C197.41 8.42, 212.61 11.14, 222.38 14.79 C232.15 18.45, 238.38 23.32, 242.2 28.17 C246.02 33.02, 247.13 38.87, 245.32 43.89 C243.5 48.91, 239.27 53.91, 231.32 58.31 C223.36 62.7, 210.16 67.1, 197.59 70.26 C185.02 73.42, 170.81 76.29, 155.89 77.26 C140.97 78.22, 123.73 76.66, 108.06 76.05 C92.4 75.45, 75.82 75.71, 61.9 73.63 C47.97 71.55, 34.29 67.72, 24.49 63.57 C14.69 59.42, 6.89 53.94, 3.09 48.75 C-0.71 43.55, -0.54 37.25, 1.68 32.42 C3.9 27.59, 8.7 23.7, 16.4 19.78 C24.11 15.86, 35.37 12, 47.91 8.9 C60.45 5.81, 84.36 2.15, 91.64 1.24 C98.91 0.33, 90.88 2.79, 91.55 3.45" stroke="#000000" stroke-width="1" fill="none"></path></g><g transform="translate(465.17361000444726 422.55034076952114) rotate(0 118.5 10.5)"><text x="118.5" y="15" font-family="Virgil, Segoe UI Emoji" font-size="16px" fill="#000000" text-anchor="middle" style="white-space: pre;" direction="ltr">CountDetectedObjects</text></g><g stroke-linecap="round" transform="translate(464.36383999564714 647.3701782966677) rotate(0 114 36.5)"><path d="M100.59 1.06 C114.99 0.03, 133.51 1.28, 148.26 2.63 C163.02 3.98, 177.51 5.9, 189.12 9.16 C200.73 12.41, 211.34 17.61, 217.94 22.16 C224.53 26.71, 228.42 31.51, 228.7 36.44 C228.98 41.36, 225.95 47.22, 219.62 51.69 C213.28 56.17, 202.36 59.91, 190.7 63.27 C179.03 66.64, 164.05 70.38, 149.65 71.88 C135.25 73.37, 119.64 72.77, 104.3 72.22 C88.96 71.66, 71.08 70.76, 57.6 68.55 C44.11 66.33, 32.44 62.95, 23.4 58.95 C14.36 54.95, 6.75 49.47, 3.37 44.55 C-0.02 39.63, 0.03 34.26, 3.09 29.42 C6.16 24.58, 13.05 19.68, 21.76 15.52 C30.46 11.36, 39.67 7.02, 55.31 4.46 C70.95 1.91, 103.14 0.68, 115.6 0.2 C128.06 -0.29, 130.23 0.82, 130.09 1.53 M151.62 1.8 C165.9 2.52, 180.55 5.9, 191.85 9.46 C203.14 13.02, 213.46 18.41, 219.37 23.15 C225.27 27.88, 227.68 32.87, 227.26 37.87 C226.85 42.88, 223.17 48.68, 216.89 53.19 C210.62 57.7, 201.03 62.05, 189.59 64.95 C178.15 67.85, 163.19 69.27, 148.25 70.57 C133.31 71.88, 115.23 73.44, 99.94 72.76 C84.66 72.08, 69.57 69.05, 56.54 66.51 C43.51 63.97, 31.06 61.47, 21.77 57.52 C12.48 53.57, 3.99 47.61, 0.78 42.84 C-2.42 38.07, -1.2 33.55, 2.53 28.9 C6.25 24.25, 13.83 18.94, 23.13 14.93 C32.43 10.92, 45.02 7.39, 58.33 4.83 C71.65 2.27, 87.79 -0.17, 103.01 -0.43 C118.24 -0.69, 141.8 2.74, 149.69 3.25 C157.59 3.76, 150.69 2.45, 150.38 2.65" stroke="none" stroke-width="0" fill="#fff"></path><path d="M109.43 0.26 C124.19 -0.57, 141.69 0.51, 155.91 2.41 C170.14 4.3, 183.88 7.95, 194.77 11.64 C205.67 15.33, 215.85 20.2, 221.26 24.56 C226.67 28.92, 228.42 32.95, 227.24 37.83 C226.05 42.71, 221.28 49.23, 214.15 53.84 C207.02 58.44, 196.23 62.48, 184.46 65.46 C172.69 68.44, 158.29 70.56, 143.51 71.73 C128.73 72.91, 111.05 73.48, 95.79 72.52 C80.54 71.56, 64.83 68.58, 51.96 65.97 C39.09 63.35, 27.06 60.9, 18.57 56.84 C10.08 52.78, 3.48 46.67, 1.02 41.6 C-1.45 36.52, -0.4 31.01, 3.77 26.39 C7.94 21.77, 16.15 17.76, 26.05 13.87 C35.96 9.99, 47.76 5.35, 63.19 3.08 C78.61 0.81, 107.86 0.54, 118.61 0.25 C129.35 -0.04, 127.95 0.78, 127.66 1.35 M156.05 2.55 C170.59 3.41, 186.16 6.23, 197.03 9.89 C207.89 13.55, 216.19 19.48, 221.25 24.51 C226.31 29.54, 228.51 35.21, 227.41 40.07 C226.32 44.94, 222.03 49.25, 214.68 53.69 C207.33 58.14, 195.4 63.67, 183.32 66.74 C171.23 69.8, 157.19 71.07, 142.18 72.07 C127.17 73.07, 108.57 73.76, 93.26 72.75 C77.95 71.74, 63.05 68.87, 50.32 66.03 C37.58 63.19, 24.95 59.75, 16.86 55.71 C8.78 51.67, 3.97 46.67, 1.81 41.8 C-0.36 36.94, -0.51 31.38, 3.87 26.52 C8.24 21.67, 17.83 16.51, 28.04 12.69 C38.24 8.86, 51.57 5.47, 65.1 3.59 C78.63 1.72, 93.99 1.81, 109.22 1.45 C124.46 1.09, 148.67 1.08, 156.5 1.42 C164.34 1.76, 156.74 2.54, 156.24 3.49" stroke="#000000" stroke-width="1" fill="none"></path></g><g transform="translate(469.36383999564714 673.3701782966677) rotate(0 109 10.5)"><text x="109" y="15" font-family="Virgil, Segoe UI Emoji" font-size="16px" fill="#000000" text-anchor="middle" style="white-space: pre;" direction="ltr">PredictDetectedObjects</text></g><g stroke-linecap="round" transform="translate(278.2088567574915 406.9008335585609) rotate(0 70.92056922643474 55.63596378970311)"><path d="M-1.88 -1.15 L140.97 0.02 L140.92 110.9 L1.74 111" stroke="none" stroke-width="0" fill="#fff"></path><path d="M-0.29 1.39 C44.96 -1.51, 91.12 -1.89, 141 1.51 M-0.76 -0.58 C53.1 0.45, 107.3 1.6, 142.03 0.81 M141.75 -1.39 C142.03 44.71, 143.43 86.9, 141.55 112.48 M142.77 -0.82 C142.32 40.46, 142.48 79.42, 141.54 111.06 M142.5 112.51 C91.59 109.31, 38.88 109.5, -1.1 112.7 M142.15 111.91 C86.21 111.76, 32.85 110.38, -1 110.3 M1.03 110.87 C0.82 75.99, -1.35 43.12, -0.83 0.88 M-0.38 111.07 C-1.06 83.75, -1.47 57.13, 0.85 -0.61" stroke="#000000" stroke-width="1" fill="none"></path></g><g transform="translate(324.27747344477643 431.04451829713497) rotate(0 22.048039631199458 8.268014861699783)"><text x="22.048039631199487" y="11.536029723399611" font-family="Virgil, Segoe UI Emoji" font-size="12.598879789256845px" fill="#000000" text-anchor="middle" style="white-space: pre;" direction="ltr">Webapp</text></g><g transform="translate(305.8144922089996 453.09255792833454) rotate(0 41.73378930191325 8.268014861699783)"><text x="41.73378930191329" y="11.536029723399611" font-family="Virgil, Segoe UI Emoji" font-size="12.598879789256847px" fill="#000000" text-anchor="middle" style="white-space: pre;" direction="ltr">/object-count</text></g><g transform="translate(302.6647722616865 475.1405975595341) rotate(0 44.88350924922747 8.268014861699783)"><text x="44.88350924922751" y="11.536029723399611" font-family="Virgil, Segoe UI Emoji" font-size="12.598879789256838px" fill="#000000" text-anchor="middle" style="white-space: pre;" direction="ltr">/prediction-list</text></g><g stroke-linecap="round"><g transform="translate(428.609374254931 462.08474349392446) rotate(0 24.931266059283416 -2.6549546714483085)"><path d="M-0.69 -0.53 C7.86 -1.13, 42.05 -4.34, 50.55 -4.78" stroke="#000000" stroke-width="1.5" fill="none" stroke-dasharray="1.5 7"></path></g><g transform="translate(428.609374254931 462.08474349392446) rotate(0 24.931266059283416 -2.6549546714483085)"><path d="M26.57 5.68 C32.14 2.94, 40.31 0.54, 51.19 -3.21" stroke="#000000" stroke-width="1.5" fill="none" stroke-dasharray="1.5 5"></path></g><g transform="translate(428.609374254931 462.08474349392446) rotate(0 24.931266059283416 -2.6549546714483085)"><path d="M25.26 -11.61 C30.98 -10.23, 39.46 -8.5, 51.19 -3.21" stroke="#000000" stroke-width="1.5" fill="none" stroke-dasharray="1.5 5"></path></g></g><g stroke-linecap="round"><g transform="translate(392.0406635334364 524.7691008636948) rotate(0 52.31057866105607 64.53983100776384)"><path d="M-0.95 0.37 C16.75 21.71, 87.73 107.51, 105.57 128.71" stroke="#000000" stroke-width="1.5" fill="none" stroke-dasharray="1.5 7"></path></g><g transform="translate(392.0406635334364 524.7691008636948) rotate(0 52.31057866105607 64.53983100776384)"><path d="M80.26 114.64 C86.66 119.45, 91.24 119.83, 107.07 130.02" stroke="#000000" stroke-width="1.5" fill="none" stroke-dasharray="1.5 5"></path></g><g transform="translate(392.0406635334364 524.7691008636948) rotate(0 52.31057866105607 64.53983100776384)"><path d="M96.02 101.5 C98.58 109.45, 99.24 113.1, 107.07 130.02" stroke="#000000" stroke-width="1.5" fill="none" stroke-dasharray="1.5 5"></path></g></g><g stroke-linecap="round" transform="translate(308.41618347154713 595.0717148275705) rotate(0 46.58579640318294 40.374356882758434)"><path d="M-0.31 -1.24 L93.91 -1.26 L91.87 82.73 L-0.24 80.38" stroke="none" stroke-width="0" fill="#fff"></path><path d="M1.64 1.34 C34.13 1.79, 66.36 -0.35, 92.11 -0.12 M-0.66 -0.32 C29.44 1.55, 60.75 -0.23, 92.78 0.53 M93.87 -0.8 C94.06 22.25, 91.52 41.67, 94.97 80.08 M92.38 -0.93 C92.75 26.3, 92.94 52.97, 94.08 81.66 M94.23 82.32 C66.91 82.56, 39.92 79.61, -0.99 82.05 M92.41 80.29 C68.16 80.97, 41.65 81.25, -0.55 81.29 M-0.53 79.19 C0.95 51.04, 0.22 21.28, 1.8 -1.03 M0.54 79.83 C-0.65 58.99, -0.04 35.63, 0.31 -0.17" stroke="#000000" stroke-width="1" fill="none"></path></g><g transform="translate(313.41618347154713 624.9460717103291) rotate(0 41.5 10.5)"><text x="41.5" y="15" font-family="Virgil, Segoe UI Emoji" font-size="16px" fill="#000000" text-anchor="middle" style="white-space: pre;" direction="ltr">CLI</text></g><g stroke-linecap="round"><g transform="translate(397.4486641214387 582.6488357867217) rotate(0 35.812324636396966 -65.2217442651069)"><path d="M0.42 -0.48 C12.36 -21.95, 59.66 -108.21, 71.21 -129.96" stroke="#000000" stroke-width="1.5" fill="none" stroke-dasharray="1.5 7"></path></g><g transform="translate(397.4486641214387 582.6488357867217) rotate(0 35.812324636396966 -65.2217442651069)"><path d="M66.01 -99.08 C69.36 -109.37, 68.78 -113.97, 70.54 -129.29" stroke="#000000" stroke-width="1.5" fill="none" stroke-dasharray="1.5 5"></path></g><g transform="translate(397.4486641214387 582.6488357867217) rotate(0 35.812324636396966 -65.2217442651069)"><path d="M47.96 -108.84 C55.92 -116.65, 60.05 -118.71, 70.54 -129.29" stroke="#000000" stroke-width="1.5" fill="none" stroke-dasharray="1.5 5"></path></g></g><g stroke-linecap="round"><g transform="translate(409.96482545824097 658.4249538374515) rotate(0 28.550437017390777 5.3142560362385325)"><path d="M0.36 -0.38 C9.97 1.55, 47.27 9, 56.74 11.01" stroke="#000000" stroke-width="1.5" fill="none" stroke-dasharray="1.5 7"></path></g><g transform="translate(409.96482545824097 658.4249538374515) rotate(0 28.550437017390777 5.3142560362385325)"><path d="M27 13.53 C34.1 13.16, 41.76 14.64, 54.77 10.79" stroke="#000000" stroke-width="1.5" fill="none" stroke-dasharray="1.5 5"></path></g><g transform="translate(409.96482545824097 658.4249538374515) rotate(0 28.550437017390777 5.3142560362385325)"><path d="M31.04 -6.19 C37.15 -2.13, 43.9 3.76, 54.77 10.79" stroke="#000000" stroke-width="1.5" fill="none" stroke-dasharray="1.5 5"></path></g></g><g stroke-linecap="round"><g transform="translate(80.32769763096712 597.138992972039) rotate(0 0.33532888556067064 -37.98669047806544)" fill-rule="evenodd"><path d="M-1.84 0.24 L34.33 4.85 L44.33 -1.46 L48.11 -9.61 L44.69 -39.17 L42.55 -57.7 L41.42 -60.83 L33.1 -69.88 L17.83 -76.38 L3.05 -80.74 L-17.84 -77.43 L-24.16 -72.45 L-36.14 -65.49 L-41.2 -52.15 L-45.7 -23.6 L-47.8 -4.85 L-45.44 1.77 L-42.18 1.76 L-21.15 2.33 L1.97 1.88" stroke="none" stroke-width="0" fill="#4c6ef5" fill-rule="evenodd"></path><path d="M-0.79 -1.15 C6.77 -1.45, 38.33 6.64, 45.73 -1.16 C53.13 -8.97, 46.07 -36.82, 43.61 -47.98 C41.14 -59.14, 37.91 -62.79, 30.93 -68.12 C23.95 -73.45, 12.16 -79.8, 1.7 -79.95 C-8.76 -80.09, -24.17 -74.41, -31.85 -69.01 C-39.53 -63.61, -42.16 -59.04, -44.39 -47.52 C-46.61 -36, -52.75 -7.75, -45.23 0.12 C-37.7 7.98, -6.74 -0.24, 0.76 -0.35 M0.99 0.87 C8.46 0.61, 37.86 8.21, 45.35 -0.24 C52.84 -8.68, 48.37 -38.18, 45.95 -49.82 C43.52 -61.46, 37.86 -65.2, 30.8 -70.08 C23.75 -74.96, 13.81 -79.64, 3.61 -79.12 C-6.59 -78.6, -22.43 -72.55, -30.4 -66.97 C-38.37 -61.38, -42.13 -56.76, -44.22 -45.62 C-46.3 -34.49, -50.17 -8.06, -42.89 -0.17 C-35.61 7.73, -7.74 1.94, -0.51 1.74" stroke="#000000" stroke-width="2" fill="none"></path></g></g><g stroke-linecap="round" transform="translate(20.060217514014766 550.324028852493) rotate(0 60 40)"><path d="M0.26 0.32 L119.55 1.03 L119.33 80.19 L-0.93 80.35" stroke="none" stroke-width="0" fill="#ced4da"></path><path d="M1.79 -1.94 C40.57 2.74, 83.47 3.04, 119.13 1.38 M-0.66 -0.47 C36.91 1.54, 73.34 0.72, 119.51 -0.92 M119.67 -1.46 C119.5 24.82, 117.57 48.33, 119.85 78.54 M119.69 -0.21 C120.6 30.12, 120.26 58.49, 119.48 80.36 M120.65 81.87 C86.89 77.42, 49 77.91, -0.79 81.77 M119.7 80.99 C92.21 80.02, 63.14 80.35, -0.02 80.67 M1.79 78.2 C-1.62 50.85, -0.22 19.04, -0.5 1.79 M-0.69 79.27 C-1.15 52.59, -1.4 25.22, 0.39 0.6" stroke="#000000" stroke-width="2" fill="none"></path></g><g stroke-linecap="round" transform="translate(73.39853538510852 583.6623467235868) rotate(0 6.66168212890625 6.66168212890625)"><path d="M4.25 1.12 C5.53 0.61, 8.2 -0.19, 9.68 0.31 C11.15 0.82, 12.64 3.03, 13.08 4.12 C13.53 5.21, 12.54 5.63, 12.34 6.87 C12.14 8.11, 12.74 10.52, 11.87 11.56 C11 12.59, 8.54 12.96, 7.13 13.07 C5.71 13.19, 4.38 13.02, 3.37 12.27 C2.36 11.51, 1.59 10.13, 1.05 8.53 C0.52 6.94, -0.7 4.13, 0.14 2.71 C0.97 1.28, 4.75 0.36, 6.06 -0.01 C7.37 -0.39, 7.85 0.25, 7.99 0.46 M7.87 -0.49 C9.21 -0.54, 10.46 0.13, 11.41 1.15 C12.36 2.17, 13.39 4.14, 13.55 5.63 C13.7 7.12, 13.31 9.05, 12.34 10.1 C11.36 11.14, 9.25 11.42, 7.69 11.9 C6.13 12.39, 4 13.24, 2.97 12.99 C1.94 12.74, 1.76 11.63, 1.51 10.41 C1.26 9.2, 1.49 7.42, 1.47 5.68 C1.46 3.95, 0.32 1, 1.42 0.01 C2.51 -0.99, 7.3 -0.39, 8.05 -0.28 C8.79 -0.17, 5.94 0.51, 5.9 0.66" stroke="none" stroke-width="0" fill="#ffffff"></path><path d="M4.78 0.2 C5.95 -0.35, 7.99 -0.02, 9.06 0.29 C10.13 0.6, 10.59 1, 11.19 2.07 C11.79 3.15, 12.59 5.1, 12.64 6.75 C12.69 8.4, 12.43 10.93, 11.48 11.99 C10.54 13.05, 8.49 13.25, 6.97 13.11 C5.45 12.98, 3.47 12.1, 2.37 11.21 C1.26 10.32, 0.53 9.03, 0.35 7.78 C0.18 6.52, 0.83 4.9, 1.32 3.7 C1.82 2.49, 2.84 1.21, 3.34 0.53 C3.83 -0.16, 4.26 -0.5, 4.29 -0.41 M5.37 -0.02 C6.38 -0.57, 7.24 0.35, 8.51 0.9 C9.78 1.44, 12.44 2.25, 12.99 3.25 C13.55 4.26, 12.08 5.54, 11.84 6.92 C11.6 8.31, 12.35 10.71, 11.56 11.56 C10.78 12.42, 8.59 11.77, 7.16 12.05 C5.72 12.33, 3.9 14.12, 2.96 13.24 C2.02 12.36, 2.01 8.53, 1.53 6.76 C1.05 4.99, -0.29 3.46, 0.07 2.62 C0.43 1.79, 3.13 2.17, 3.69 1.77 C4.24 1.36, 3.12 0.4, 3.42 0.21" stroke="#000000" stroke-width="2" fill="none"></path></g><g stroke-linecap="round"><g transform="translate(19.654371694125985 623.6260857261573) rotate(0 61.376417309500766 5.03517301782)" fill-rule="evenodd"><path d="M-0.98 -1.84 L-7.02 0.88 L-8.95 5.49 L-5.16 7.88 L12.68 6.97 L115.7 10.59 L128.42 10.41 L128.9 5.87 L131.53 0.56 L126.91 -0.26 L109.24 -3.49 L-1.05 0.71" stroke="none" stroke-width="0" fill="#ced4da" fill-rule="evenodd"></path><path d="M-1.16 -1.05 C-2.17 -0.83, -8.04 0.94, -7.19 2.43 C-6.35 3.92, -16.99 6.48, 3.9 7.88 C24.79 9.28, 97.59 11.56, 118.14 10.83 C138.69 10.1, 127.07 5.65, 127.2 3.5 C127.32 1.36, 140.06 -1.58, 118.88 -2.04 C97.7 -2.49, 19.99 0.46, 0.12 0.76 M0.43 1.01 C-0.56 1.89, -8.19 2.28, -7.64 3.6 C-7.09 4.92, -17.35 7.53, 3.73 8.93 C24.81 10.32, 97.98 12.89, 118.82 11.97 C139.67 11.06, 128.63 5.37, 128.81 3.42 C128.98 1.47, 141.21 0.89, 119.88 0.28 C98.55 -0.32, 21.06 -0.03, 0.82 -0.19" stroke="#000000" stroke-width="2" fill="none"></path></g></g><g stroke-linecap="round" transform="translate(40.775622332405874 442.99088269363887) rotate(0 40 40)"><path d="M24.22 3.14 C30.27 -0.04, 39.91 -0.35, 47.12 0.91 C54.34 2.18, 62.42 6.12, 67.53 10.72 C72.65 15.32, 76.12 21.68, 77.84 28.52 C79.55 35.37, 79.93 44.76, 77.81 51.78 C75.69 58.79, 70.5 65.85, 65.12 70.6 C59.75 75.35, 52.56 79.32, 45.55 80.27 C38.53 81.22, 29.64 79.42, 23.02 76.32 C16.4 73.22, 9.73 67.81, 5.84 61.68 C1.94 55.55, -0.39 46.81, -0.33 39.55 C-0.27 32.29, 1.93 24.21, 6.18 18.1 C10.43 11.98, 21.72 5.47, 25.19 2.86 C28.66 0.24, 26.86 1.9, 27.01 2.4 M44.38 0.73 C50.9 0.35, 57.18 2.64, 62.86 6.85 C68.55 11.05, 76.02 18.89, 78.51 25.96 C81.01 33.03, 79.45 42.19, 77.84 49.26 C76.23 56.33, 73.74 63.32, 68.85 68.37 C63.97 73.42, 55.92 78.1, 48.54 79.55 C41.15 80.99, 31.38 79.45, 24.56 77.05 C17.75 74.66, 11.89 70.78, 7.64 65.19 C3.39 59.6, -0.38 51.15, -0.95 43.53 C-1.52 35.9, 0.44 26.13, 4.2 19.45 C7.97 12.77, 15.03 6.72, 21.64 3.46 C28.26 0.2, 40.38 0.21, 43.9 -0.13 C47.43 -0.47, 42.97 0.63, 42.81 1.43" stroke="none" stroke-width="0" fill="#ffffff"></path><path d="M28.99 1.82 C35.06 -0.77, 43.2 -1.12, 49.92 0.74 C56.63 2.61, 64.32 7.37, 69.27 12.99 C74.22 18.62, 78.45 27.32, 79.62 34.49 C80.79 41.67, 79.29 49.69, 76.28 56.02 C73.26 62.36, 67.46 68.59, 61.51 72.48 C55.56 76.37, 47.58 79.16, 40.57 79.37 C33.56 79.58, 25.71 77.45, 19.46 73.73 C13.21 70, 6.27 63.69, 3.07 57.03 C-0.13 50.37, -0.66 40.95, 0.27 33.79 C1.2 26.63, 3.38 19.47, 8.67 14.07 C13.96 8.67, 27.19 3.45, 32.02 1.38 C36.86 -0.7, 37.47 1.12, 37.66 1.62 M45.65 -0.16 C52.48 0.47, 62.17 5.74, 67.75 10.56 C73.33 15.39, 77.34 21.55, 79.13 28.78 C80.91 36.02, 80.56 47.12, 78.46 53.98 C76.36 60.84, 72.37 65.78, 66.55 69.94 C60.73 74.1, 51.06 77.76, 43.56 78.96 C36.06 80.15, 28.03 80.26, 21.55 77.12 C15.08 73.97, 8.15 66.59, 4.72 60.1 C1.29 53.61, 0.32 45.09, 0.96 38.18 C1.61 31.27, 4.83 24.35, 8.59 18.64 C12.35 12.94, 17.23 6.97, 23.54 3.97 C29.85 0.96, 42.38 0.81, 46.45 0.6 C50.51 0.39, 47.95 1.85, 47.92 2.69" stroke="#000000" stroke-width="2" fill="none"></path></g><g stroke-linecap="round"><g transform="translate(53.54819569826486 481.5031563737538) rotate(356.85899504108176 9.188892948323314 -4.79002622815193)"><path d="M0.95 -0.71 C1.81 -1.77, 2.39 -5.65, 3.96 -7.38 C5.54 -9.11, 8.83 -10.95, 10.42 -11.11 C12.02 -11.26, 12.49 -9.83, 13.52 -8.3 C14.55 -6.78, 15.94 -3.22, 16.61 -1.94 M-0.01 1.53 C0.89 0.72, 1.93 -4.24, 3.61 -6.12 C5.3 -7.99, 8.5 -9.49, 10.09 -9.75 C11.69 -10.01, 11.8 -8.99, 13.19 -7.67 C14.57 -6.36, 17.42 -2.92, 18.38 -1.84" stroke="#000000" stroke-width="2" fill="none"></path></g></g><g stroke-linecap="round"><g transform="translate(87.41844086603942 481.8040735585818) rotate(356.85899504108176 9.00797430050875 -5.587694698370342)"><path d="M-0.71 1.14 C-0.15 -0.03, 0.57 -3.79, 2.31 -6.03 C4.04 -8.27, 7.78 -11.93, 9.68 -12.29 C11.58 -12.65, 12.52 -10.04, 13.71 -8.2 C14.91 -6.36, 16.1 -2.33, 16.84 -1.25 M1.11 0.69 C1.56 -0.89, -0.22 -5.68, 1.09 -7.72 C2.39 -9.76, 6.89 -11.59, 8.96 -11.55 C11.02 -11.52, 11.86 -9.3, 13.49 -7.51 C15.12 -5.72, 18.26 -1.56, 18.73 -0.8" stroke="#000000" stroke-width="2" fill="none"></path></g></g><g stroke-linecap="round"><g transform="translate(61.89111924415465 498.14900615062373) rotate(0 17.235672480259097 3.7452232563650796)"><path d="M1.14 -0.52 C3.74 0.67, 11.42 6.18, 16.54 6.43 C21.67 6.69, 29.27 1.86, 31.88 1.01 M0.28 1.82 C2.7 3.28, 10.37 8.01, 16.03 8.01 C21.68 8.02, 31.53 2.83, 34.2 1.85" stroke="#000000" stroke-width="2" fill="none"></path></g></g><g stroke-linecap="round"><g transform="translate(79.24249603192493 439.7993599870351) rotate(0 -6.665963831717704 -3.36223940464356)"><path d="M-0.52 0.83 C-2.71 -0.62, -11.45 -6.21, -13.83 -7.55 M1.41 0.22 C-0.87 -0.61, -12.44 -5.5, -14.74 -6.59" stroke="#000000" stroke-width="2" fill="none"></path></g></g><g stroke-linecap="round"><g transform="translate(82.02145212730011 438.9053221045478) rotate(0 13.023020354602409 -1.6650446468462974)"><path d="M0.83 0.08 C2.13 -0.36, 5.13 -2.69, 8.96 -3.19 C12.78 -3.7, 21.15 -3.21, 23.77 -2.95 M-0.2 -0.92 C1.36 -1.2, 6.69 -1.96, 11.09 -2.13 C15.5 -2.3, 23.93 -1.66, 26.24 -1.93" stroke="#000000" stroke-width="2" fill="none"></path></g></g><g stroke-linecap="round"><g transform="translate(77.0274793489798 441.3301979997304) rotate(0 -13.878543263648965 0.2989053804785158)"><path d="M0.08 -1.1 C-2.54 -1.55, -11.79 -2.23, -16.26 -1.85 C-20.74 -1.47, -25.24 0.75, -26.77 1.18 M-1.33 0.94 C-3.54 0.55, -9.61 -1, -14.03 -0.73 C-18.44 -0.46, -26.04 2.17, -27.84 2.56" stroke="#000000" stroke-width="2" fill="none"></path></g></g><g stroke-linecap="round"><g transform="translate(159.8787650079587 555.1222742437856) rotate(0 46.4212603272386 -38.34221737051956)"><path d="M1.17 0.19 C16.73 -12.64, 77.26 -64.14, 92.51 -76.87 M0.33 -0.76 C15.77 -13.5, 76.15 -63.55, 91.41 -75.94" stroke="#000000" stroke-width="1" fill="none"></path></g><g transform="translate(159.8787650079587 555.1222742437856) rotate(0 46.4212603272386 -38.34221737051956)"><path d="M76.45 -50.61 C77.74 -56.42, 82.45 -62, 93.2 -74.61 M76.39 -50.65 C82.12 -58.03, 86.76 -67.04, 92.33 -75.7" stroke="#000000" stroke-width="1" fill="none"></path></g><g transform="translate(159.8787650079587 555.1222742437856) rotate(0 46.4212603272386 -38.34221737051956)"><path d="M63.43 -66.46 C67.75 -68.73, 75.48 -70.62, 93.2 -74.61 M63.36 -66.51 C73.28 -68.82, 82.16 -72.67, 92.33 -75.7" stroke="#000000" stroke-width="1" fill="none"></path></g></g><g stroke-linecap="round"><g transform="translate(156.6006724018166 592.4378714973338) rotate(0 67.77844417898655 22.829619068453837)"><path d="M-0.65 -0.38 C21.86 7.43, 113.34 38.21, 136.21 45.68 M1.2 -1.62 C23.53 6.5, 113.16 39.49, 135.69 47.28" stroke="#000000" stroke-width="1" fill="none"></path></g><g transform="translate(156.6006724018166 592.4378714973338) rotate(0 67.77844417898655 22.829619068453837)"><path d="M105.07 48.79 C117.76 49.46, 127.53 48.27, 135.22 47.55 M104.78 47.62 C111.49 46.46, 118.28 47.75, 136.56 48.03" stroke="#000000" stroke-width="1" fill="none"></path></g><g transform="translate(156.6006724018166 592.4378714973338) rotate(0 67.77844417898655 22.829619068453837)"><path d="M111.99 29.47 C121.76 37.75, 128.79 44.19, 135.22 47.55 M111.7 28.3 C117.07 31.27, 122.38 36.68, 136.56 48.03" stroke="#000000" stroke-width="1" fill="none"></path></g></g><g stroke-linecap="round"><g transform="translate(691.7264431587942 459.4839320269123) rotate(0 97.31085397601282 89.4089260039782)"><path d="M-0.53 0.26 C32.09 30.04, 162.56 148.52, 195.16 178.56" stroke="#000000" stroke-width="1.5" fill="none" stroke-dasharray="8 9"></path></g><g transform="translate(691.7264431587942 459.4839320269123) rotate(0 97.31085397601282 89.4089260039782)"><path d="M167.86 168.15 C173 170.94, 183.21 173.33, 196.88 178.23" stroke="#000000" stroke-width="1.5" fill="none"></path></g><g transform="translate(691.7264431587942 459.4839320269123) rotate(0 97.31085397601282 89.4089260039782)"><path d="M181.7 153 C183.34 159.56, 190.05 165.77, 196.88 178.23" stroke="#000000" stroke-width="1.5" fill="none"></path></g></g><g stroke-linecap="round"><g transform="translate(700.3724391684686 678.876080772402) rotate(0 81.3155735221394 -2.6903521554441454)"><path d="M0.09 -0.55 C27.3 -1.52, 135.42 -4.21, 162.54 -4.83" stroke="#000000" stroke-width="1.5" fill="none" stroke-dasharray="8 9"></path></g><g transform="translate(700.3724391684686 678.876080772402) rotate(0 81.3155735221394 -2.6903521554441454)"><path d="M133.68 6.82 C142.26 4.58, 150 0.79, 164.19 -4.64" stroke="#000000" stroke-width="1.5" fill="none"></path></g><g transform="translate(700.3724391684686 678.876080772402) rotate(0 81.3155735221394 -2.6903521554441454)"><path d="M133.19 -13.69 C142.05 -10.95, 149.91 -9.76, 164.19 -4.64" stroke="#000000" stroke-width="1.5" fill="none"></path></g></g><g stroke-linecap="round"><g transform="translate(871.1308603595394 659.4225897506344) rotate(0 -20.896132881563062 -9.152037323754826)"><path d="M-0.13 -0.17 C-6.99 -3.31, -34.96 -15.47, -41.66 -18.13" stroke="#000000" stroke-width="1.5" fill="none" stroke-dasharray="8 9"></path></g><g transform="translate(871.1308603595394 659.4225897506344) rotate(0 -20.896132881563062 -9.152037323754826)"><path d="M-19.69 -18.04 C-26.52 -16.11, -28.92 -18.86, -41.36 -19.75" stroke="#000000" stroke-width="1.5" fill="none"></path></g><g transform="translate(871.1308603595394 659.4225897506344) rotate(0 -20.896132881563062 -9.152037323754826)"><path d="M-25.59 -3.99 C-30.99 -5.65, -31.87 -12.01, -41.36 -19.75" stroke="#000000" stroke-width="1.5" fill="none"></path></g></g><g stroke-linecap="round"><g transform="translate(742.5216697156318 612.9503611986343) rotate(0 -10.853419894311287 -15.030107823070352)"><path d="M1.06 -0.51 C-2.61 -5.3, -18.8 -24.73, -22.77 -29.55" stroke="#000000" stroke-width="1.5" fill="none" stroke-dasharray="8 9"></path></g><g transform="translate(742.5216697156318 612.9503611986343) rotate(0 -10.853419894311287 -15.030107823070352)"><path d="M-7.87 -22.11 C-11.32 -24.1, -14.86 -25.97, -23.45 -31.09" stroke="#000000" stroke-width="1.5" fill="none"></path></g><g transform="translate(742.5216697156318 612.9503611986343) rotate(0 -10.853419894311287 -15.030107823070352)"><path d="M-17.44 -14.19 C-18.57 -18.14, -19.85 -21.89, -23.45 -31.09" stroke="#000000" stroke-width="1.5" fill="none"></path></g></g><g stroke-linecap="round"><g transform="translate(638.0649727873677 599.0133104236197) rotate(0 -16.114370251723017 21.25177646222562)"><path d="M0.38 -0.61 C-5.14 6.56, -27.4 35.57, -32.61 43.11" stroke="#000000" stroke-width="1.5" fill="none" stroke-dasharray="8 9"></path></g><g transform="translate(638.0649727873677 599.0133104236197) rotate(0 -16.114370251723017 21.25177646222562)"><path d="M-25.99 15.52 C-29.39 27.42, -29.45 35.24, -30.89 41.56" stroke="#000000" stroke-width="1.5" fill="none"></path></g><g transform="translate(638.0649727873677 599.0133104236197) rotate(0 -16.114370251723017 21.25177646222562)"><path d="M-11 26.53 C-19.55 34.7, -24.75 38.74, -30.89 41.56" stroke="#000000" stroke-width="1.5" fill="none"></path></g></g><g stroke-linecap="round"><g transform="translate(644.6173676476537 553.9287468715793) rotate(0 -0.5453365853056766 -40.07041558347083)"><path d="M0.44 0.42 C0.31 -12.82, -1.38 -67.11, -1.53 -80.56" stroke="#000000" stroke-width="1.5" fill="none" stroke-dasharray="8 9"></path></g><g transform="translate(644.6173676476537 553.9287468715793) rotate(0 -0.5453365853056766 -40.07041558347083)"><path d="M10.05 -54.42 C8.55 -59.28, 6.39 -66.12, -1.48 -79.74" stroke="#000000" stroke-width="1.5" fill="none"></path></g><g transform="translate(644.6173676476537 553.9287468715793) rotate(0 -0.5453365853056766 -40.07041558347083)"><path d="M-10.46 -53.96 C-7.07 -59, -4.32 -65.95, -1.48 -79.74" stroke="#000000" stroke-width="1.5" fill="none"></path></g></g><g stroke-linecap="round"><g transform="translate(680.918948146701 397.8812104579817) rotate(0 18.94903599519523 -8.764997247349982)"><path d="M0.64 0.46 C6.83 -2.7, 30.94 -15.09, 37.26 -17.99" stroke="#000000" stroke-width="1.5" fill="none" stroke-dasharray="8 9"></path></g><g transform="translate(680.918948146701 397.8812104579817) rotate(0 18.94903599519523 -8.764997247349982)"><path d="M23.61 -3.95 C26.03 -6.48, 32.26 -10.54, 39.01 -19.42" stroke="#000000" stroke-width="1.5" fill="none"></path></g><g transform="translate(680.918948146701 397.8812104579817) rotate(0 18.94903599519523 -8.764997247349982)"><path d="M17.35 -16.73 C21.81 -15.33, 29.98 -15.42, 39.01 -19.42" stroke="#000000" stroke-width="1.5" fill="none"></path></g></g><g stroke-linecap="round"><g transform="translate(774.9441547519109 375.18547093258627) rotate(0 12.795799061124285 8.122362234147545)"><path d="M0.39 -1.2 C4.76 1.71, 21.03 14.12, 25.2 17.44" stroke="#000000" stroke-width="1.5" fill="none" stroke-dasharray="8 9"></path></g><g transform="translate(774.9441547519109 375.18547093258627) rotate(0 12.795799061124285 8.122362234147545)"><path d="M8.94 13.16 C12.47 14.4, 17.35 14.37, 26.66 17.34" stroke="#000000" stroke-width="1.5" fill="none"></path></g><g transform="translate(774.9441547519109 375.18547093258627) rotate(0 12.795799061124285 8.122362234147545)"><path d="M15.42 4.8 C17.55 7.87, 21.03 9.66, 26.66 17.34" stroke="#000000" stroke-width="1.5" fill="none"></path></g></g><g stroke-linecap="round"><g transform="translate(824.658631807539 418.4154509809586) rotate(0 35.43569856887336 16.212992674129055)"><path d="M0.35 1.18 C12.3 6.48, 58.74 26.46, 70.52 31.25" stroke="#000000" stroke-width="1.5" fill="none" stroke-dasharray="8 9"></path></g><g transform="translate(824.658631807539 418.4154509809586) rotate(0 35.43569856887336 16.212992674129055)"><path d="M42.52 30.24 C48.29 31.34, 52.17 28.56, 69.33 29.4" stroke="#000000" stroke-width="1.5" fill="none"></path></g><g transform="translate(824.658631807539 418.4154509809586) rotate(0 35.43569856887336 16.212992674129055)"><path d="M50.47 11.32 C54.53 16.29, 56.79 17.35, 69.33 29.4" stroke="#000000" stroke-width="1.5" fill="none"></path></g></g><g stroke-linecap="round"><g transform="translate(875.0932888364753 465.85255361414164) rotate(0 -80.31923502643872 -10.907886020122191)"><path d="M1.16 -0.76 C-25.95 -4.14, -134.69 -17.95, -161.8 -21.06" stroke="#000000" stroke-width="1.5" fill="none" stroke-dasharray="8 9"></path></g><g transform="translate(875.0932888364753 465.85255361414164) rotate(0 -80.31923502643872 -10.907886020122191)"><path d="M-133.84 -28.2 C-145.21 -24.83, -153.4 -24.17, -162.94 -22.69" stroke="#000000" stroke-width="1.5" fill="none"></path></g><g transform="translate(875.0932888364753 465.85255361414164) rotate(0 -80.31923502643872 -10.907886020122191)"><path d="M-136.32 -7.83 C-146.63 -12.1, -153.9 -19.07, -162.94 -22.69" stroke="#000000" stroke-width="1.5" fill="none"></path></g></g><g transform="translate(875.2816344140899 302.7028754239638) rotate(0 40 10.5)"><text x="40" y="15" font-family="Virgil, Segoe UI Emoji" font-size="16px" fill="#000000" text-anchor="middle" style="white-space: pre;" direction="ltr">implements</text></g><g transform="translate(1016.2746717886405 491.1429628683084) rotate(0 40 10.5)"><text x="40" y="15" font-family="Virgil, Segoe UI Emoji" font-size="16px" fill="#000000" text-anchor="middle" style="white-space: pre;" direction="ltr">implements</text></g><g transform="translate(1039.557925667007 387.6618345200141) rotate(0 40 10.5)"><text x="40" y="15" font-family="Virgil, Segoe UI Emoji" font-size="16px" fill="#000000" text-anchor="middle" style="white-space: pre;" direction="ltr">implements</text></g><g transform="translate(1017.5681858929947 673.5284515821772) rotate(0 40 10.5)"><text x="40" y="15" font-family="Virgil, Segoe UI Emoji" font-size="16px" fill="#000000" text-anchor="middle" style="white-space: pre;" direction="ltr">implements</text></g><g transform="translate(972.295192240616 756.3133542608123) rotate(0 40 10.5)"><text x="40" y="15" font-family="Virgil, Segoe UI Emoji" font-size="16px" fill="#000000" text-anchor="middle" style="white-space: pre;" direction="ltr">implements</text></g><g transform="translate(424.94250042935073 543.2964988337483) rotate(0 19.5 10.5)"><text x="19.5" y="15" font-family="Virgil, Segoe UI Emoji" font-size="16px" fill="#000000" text-anchor="middle" style="white-space: pre;" direction="ltr">Uses</text></g></svg>